<svg width="44" height="44" viewBox="0 0 44 44" fill="none" xmlns="http://www.w3.org/2000/svg">
<rect width="44" height="44" rx="22" fill="#6194E5"/>
<g clip-path="url(#clip0_515_5817)">
<path d="M32.9362 30.6703L30.7257 25.9651C28.9214 28.1349 26.27 29.5737 23.2996 29.7826L25.3824 34.2209C25.4868 34.4414 25.7189 34.627 26.0147 34.6328C26.241 34.6328 26.4557 34.54 26.5949 34.3601L28.7648 31.6159L32.2632 31.703C32.5126 31.7088 32.7447 31.5869 32.8839 31.3781C33.0232 31.1692 33.0406 30.9023 32.9304 30.6761L32.9362 30.6703Z" fill="white"/>
<path d="M11.116 31.3665C11.2552 31.5753 11.4873 31.6972 11.7367 31.6914L15.2352 31.6043L17.405 34.3485C17.5442 34.5284 17.7647 34.627 17.9852 34.6212C18.2869 34.6154 18.5131 34.4298 18.6175 34.2093L20.7004 29.771C17.7299 29.5621 15.0843 28.1233 13.2742 25.9535L11.0696 30.6703C10.9651 30.8965 10.9825 31.1634 11.116 31.3723V31.3665Z" fill="white"/>
<path d="M31.01 18.5099C31.01 13.5437 26.9663 9.49988 22 9.49988C17.0338 9.49988 12.99 13.5437 12.99 18.5099C12.99 23.4761 17.0338 27.5199 22 27.5199C26.9663 27.5199 31.01 23.4761 31.01 18.5099ZM26.9431 17.5816L25.6841 19.0843C25.3708 19.4614 25.2141 19.9429 25.249 20.4303L25.3824 22.3854C25.3998 22.6001 25.3012 22.8089 25.1271 22.9366C24.9531 23.0642 24.7268 23.0932 24.5237 23.012L22.7078 22.281C22.2553 22.1011 21.7505 22.1011 21.298 22.281L19.4821 23.012C19.4125 23.041 19.1456 23.128 18.8787 22.9366C18.7047 22.8089 18.606 22.6001 18.6234 22.3854L18.7569 20.4303C18.7917 19.9429 18.635 19.4614 18.3217 19.0843L17.0628 17.5816C16.9235 17.4134 16.8829 17.1929 16.9467 16.9841C17.0106 16.781 17.1788 16.6244 17.3877 16.5721L19.2906 16.0964C19.7664 15.9804 20.1725 15.6787 20.4336 15.2668L21.4721 13.6075C21.5881 13.4276 21.7853 13.3116 22 13.3116C22.2147 13.3116 22.4177 13.4218 22.528 13.6075L23.5665 15.2668C23.8275 15.6787 24.2337 15.9804 24.7094 16.0964L26.6124 16.5721C26.8212 16.6244 26.9895 16.781 27.0533 16.9841C27.1171 17.1871 27.0765 17.4134 26.9372 17.5816H26.9431Z" fill="white"/>
</g>
<defs>
<clipPath id="clip0_515_5817">
<rect width="22" height="25.1271" fill="white" transform="translate(11 9.5)"/>
</clipPath>
</defs>
</svg>
