<svg width="44" height="44" viewBox="0 0 44 44" fill="none" xmlns="http://www.w3.org/2000/svg">
<g clip-path="url(#clip0_511_5745)">
<path d="M22 44C34.1503 44 44 34.1503 44 22C44 9.84974 34.1503 0 22 0C9.84974 0 0 9.84974 0 22C0 34.1503 9.84974 44 22 44Z" fill="#6194E5"/>
<g clip-path="url(#clip1_511_5745)">
<path d="M31.3473 24.9814H12.6527L17.123 29.4517L17.1191 24.9814" stroke="white" stroke-width="2.76549" stroke-linecap="round" stroke-linejoin="round"/>
<path d="M14.8242 26.9625H16.4392V25.2424H14.8242V26.9625Z" fill="white"/>
<path d="M12.6527 19.3027H31.3473L26.877 14.8324V19.2988" stroke="white" stroke-width="2.76549" stroke-linecap="round" stroke-linejoin="round"/>
<path d="M29.1766 17.3215H27.5615V19.0417H29.1766V17.3215Z" fill="white"/>
</g>
</g>
<defs>
<clipPath id="clip0_511_5745">
<rect width="44" height="44" fill="white"/>
</clipPath>
<clipPath id="clip1_511_5745">
<rect width="20" height="20" fill="white" transform="translate(22 8) rotate(45)"/>
</clipPath>
</defs>
</svg>
