<svg width="353" height="68" viewBox="0 0 353 68" fill="none" xmlns="http://www.w3.org/2000/svg">
<rect width="353" height="68" rx="12" fill="#E7695D"/>
<path d="M136.453 24.9453V43.3078H134.3V24.9453H136.453ZM132.553 25.3922V42.4344H130.42V33.9844H127.15C126.073 36.0969 124.347 37.925 121.747 39.4281L120.467 37.8234C124.276 35.5789 126.012 32.7047 126.358 29.0078H121.402V27.1797H128.592C128.592 28.957 128.379 30.6227 127.881 32.1766H130.42V25.3922H132.553ZM153.881 24.9656V35.3656H151.606V24.9656H153.881ZM153.881 36.2594V43.0844H141.694V36.2594H153.881ZM143.928 38.0469V41.2563H151.667V38.0469H143.928ZM143.867 25.8391C146.691 25.8391 148.803 27.6266 148.803 30.2266C148.803 32.7453 146.691 34.5734 143.867 34.5734C141.023 34.5734 138.911 32.7453 138.911 30.2266C138.911 27.6266 141.023 25.8391 143.867 25.8391ZM143.867 27.7484C142.262 27.7484 141.105 28.7031 141.125 30.2266C141.105 31.7094 142.262 32.6641 143.867 32.6641C145.452 32.6641 146.589 31.7094 146.589 30.2266C146.589 28.7031 145.452 27.7484 143.867 27.7484ZM168.445 29.3531C168.425 32.725 170.192 36.0969 173.178 37.3766L171.837 39.1844C169.725 38.2094 168.171 36.2594 167.328 33.8625C166.485 36.4523 164.911 38.5648 162.677 39.6109L161.295 37.7219C164.362 36.4016 166.15 32.8875 166.15 29.3531V26.4281H168.445V29.3531ZM176.773 24.9453V43.3281H174.498V24.9453H176.773ZM186.056 28.1344C186.056 30.3891 187.519 32.6234 190.403 33.5781L189.266 35.325C187.214 34.6445 185.752 33.2633 184.959 31.5469C184.137 33.4258 182.613 34.9188 180.47 35.65L179.272 33.9031C182.237 32.9281 183.781 30.5516 183.781 28.1344V27.9109H179.902V26.1031H189.875V27.9109H186.056V28.1344ZM193.958 24.9453V29.5359H196.517V31.425H193.958V36.0156H191.703V24.9453H193.958ZM193.958 36.8688V43.3078H191.703V38.6766H181.73V36.8688H193.958ZM211.833 24.9453V32.2578H214.656V34.1266H211.833V43.3078H209.598V24.9453H211.833ZM208.177 27.7688V29.5766H197.35V27.7688H201.697V25.2094H203.952V27.7688H208.177ZM202.834 30.775C205.475 30.775 207.445 32.5625 207.445 35.1016C207.445 37.6406 205.475 39.4078 202.834 39.4078C200.153 39.4078 198.183 37.6406 198.203 35.1016C198.183 32.5625 200.153 30.775 202.834 30.775ZM202.834 32.6234C201.392 32.6234 200.356 33.5984 200.356 35.1016C200.356 36.6047 201.392 37.5594 202.834 37.5391C204.236 37.5594 205.272 36.6047 205.292 35.1016C205.272 33.5984 204.236 32.6234 202.834 32.6234ZM230.764 24.9453V43.3078H228.489V24.9453H230.764ZM225.28 26.8953C225.28 32.3594 223.167 37.0109 216.728 40.0578L215.55 38.25C220.354 35.9648 222.588 32.857 222.984 28.6828H216.484V26.8953H225.28Z" fill="white"/>
</svg>
