<svg width="58" height="58" viewBox="0 0 58 58" fill="none" xmlns="http://www.w3.org/2000/svg">
<path d="M14.5801 20.4399L22.6701 27.6499" stroke="#368A7B" stroke-width="2.4" stroke-linecap="round" stroke-linejoin="round"/>
<path d="M20.1602 13.23L25.2702 27.22" stroke="#368A7B" stroke-width="2.4" stroke-linecap="round" stroke-linejoin="round"/>
<path d="M42.6902 20.01L35.4502 27.64" stroke="#368A7B" stroke-width="2.4" stroke-linecap="round" stroke-linejoin="round"/>
<path d="M36.35 12.8101L32.52 28.0801" stroke="#368A7B" stroke-width="2.4" stroke-linecap="round" stroke-linejoin="round"/>
<path d="M10.7201 19.18C10.7201 19.18 9.4801 16.49 10.8301 14.36C10.8301 14.36 10.0601 11.14 12.9501 8.63003C15.8401 6.13003 17.9301 6.00003 17.9301 6.00003C17.9301 6.00003 20.2201 2.18003 29.3801 2.20003C38.5401 2.22003 39.9101 6.18003 39.9101 6.18003C39.9101 6.18003 47.7701 8.15003 46.9901 14.04C46.9901 14.04 48.7601 17.13 46.9701 19.62C46.9701 19.62 45.9201 21.15 45.0901 21.39C44.6201 21.53 44.0701 21.5 43.6701 21.19C43.1601 20.79 43.0801 20.07 42.9001 19.49C42.5401 18.34 42.1401 17.15 41.4801 16.13C40.7801 15.04 39.7801 14.16 38.6401 13.55C34.8401 11.54 30.4001 10.52 26.1101 11.09C23.1701 11.48 20.3101 12.65 18.0701 14.59C17.0101 15.51 16.0901 16.62 15.4801 17.89C15.1701 18.54 14.9401 19.23 14.8301 19.95C14.7501 20.47 14.9001 21.23 14.2601 21.42C13.9401 21.51 13.5501 21.5 13.2301 21.45C12.0501 21.24 11.2501 20.2 10.7301 19.2L10.7201 19.18Z" fill="#60B584" stroke="#368A7B" stroke-width="2.4" stroke-linecap="round" stroke-linejoin="round"/>
<path d="M18.1402 5.67993C18.1402 5.67993 15.3502 9.46993 19.1802 12.6199" stroke="#368A7B" stroke-width="2.4" stroke-linecap="round" stroke-linejoin="round"/>
<path d="M39.56 5.67993C39.56 5.67993 41.17 9.23993 36.98 12.2199" stroke="#368A7B" stroke-width="2.4" stroke-linecap="round" stroke-linejoin="round"/>
<path d="M16.7702 29.7H41.4402C42.4302 29.7 43.2402 30.51 43.2402 31.5V51.49C43.2402 52.48 42.4302 53.29 41.4402 53.29H16.7702C15.7802 53.29 14.9702 52.48 14.9702 51.49L14.9702 31.5C14.9702 30.51 15.7802 29.7 16.7702 29.7Z" fill="#D4574B" stroke="#91000F" stroke-width="2.4" stroke-linecap="round" stroke-linejoin="round"/>
<path d="M29.2002 52.69V31.3" stroke="#91000F" stroke-width="3.4" stroke-linecap="round" stroke-linejoin="round"/>
<path d="M41.4402 28H16.7702C15.7761 28 14.9702 28.8059 14.9702 29.8V36.52C14.9702 37.5141 15.7761 38.32 16.7702 38.32H41.4402C42.4343 38.32 43.2402 37.5141 43.2402 36.52V29.8C43.2402 28.8059 42.4343 28 41.4402 28Z" fill="#196BA4" stroke="#0B3B5D" stroke-width="2.4"/>
<path d="M22 54.5H19V27H22V54.5Z" fill="#1A2E37"/>
<path d="M39 54.5H36V27H39V54.5Z" fill="#1A2E37"/>
</svg>
