<svg width="50" height="50" viewBox="0 0 50 50" fill="none" xmlns="http://www.w3.org/2000/svg">
<path d="M6.2 27.312V23.808H13.592V27.312H6.2ZM18.5809 33V17.628L15.1649 18.468L14.2689 14.94L19.8969 13.26H22.8369V33H18.5809ZM34.2014 33.336C28.9654 33.336 25.5214 28.94 25.5214 23.256V23.2C25.5214 17.516 29.0494 13.064 34.2574 13.064C39.4374 13.064 42.9374 17.46 42.9374 23.144V23.2C42.9374 28.884 39.4374 33.336 34.2014 33.336ZM34.2574 29.444C36.8614 29.444 38.5134 26.812 38.5134 23.256V23.2C38.5134 19.644 36.7774 16.956 34.2014 16.956C31.6254 16.956 29.9454 19.56 29.9454 23.144V23.2C29.9454 26.784 31.6534 29.444 34.2574 29.444Z" fill="#E35251"/>
</svg>
