<svg width="140" height="140" viewBox="0 0 140 140" fill="none" xmlns="http://www.w3.org/2000/svg">
<path d="M110 73L98 89" stroke="#061922" stroke-width="2.40162" stroke-linecap="round" stroke-linejoin="round"/>
<path d="M30 63L34 74" stroke="#061922" stroke-width="2.40162" stroke-linecap="round" stroke-linejoin="round"/>
<path d="M12 68L31 77" stroke="#061922" stroke-width="2.40162" stroke-linecap="round" stroke-linejoin="round"/>
<path d="M128 81L98 93" stroke="#061922" stroke-width="2.40162" stroke-linecap="round" stroke-linejoin="round"/>
<path d="M46.5337 81.5513C45.4562 78.928 43.7237 76.5698 41.5406 74.7419C39.8363 73.3186 37.7799 72.1953 35.5545 72.0209C33.3291 71.8465 30.9417 72.7674 29.7727 74.6512C28.7938 76.2489 28.8079 78.307 29.4628 80.0582C30.1248 81.8094 31.3572 83.2885 32.7094 84.5932C34.0615 85.8979 35.4771 87.1328 36.8855 88.3747C38.5194 89.8189 40.773 92.7073 41.1533 94.291C41.8505 97.5841 40.2237 101.463 39.6603 102.963C38.8574 105.035 35.6461 105.81 33.7517 106.905C31.4277 108.259 28.7797 110.687 29.2938 114.475C30.1107 120.461 35.6179 121.466 38.6109 120.74C45.5548 119.052 50.0901 118.71 56.9142 120.357C66.0976 122.575 70.1611 128.582 73.6541 129.622C76.788 130.557 79.3585 129.692 81.0768 127.759C86.2249 121.968 77.9641 115.703 77.0767 113.394C77.0767 113.394 76.619 112.682 76.8302 111.552C77.126 109.982 77.7458 105.817 80.0486 103.354C81.1966 102.189 84.6262 100.856 86.7742 100.452C88.6263 100.096 90.4785 99.7539 92.3166 99.3283C94.1546 98.9027 95.9786 98.2609 97.4575 97.0957C98.9365 95.9306 100.014 94.1724 99.9999 92.3026C99.9787 90.091 98.4083 88.0886 96.4082 87.1049C94.4082 86.1211 92.063 86.0374 89.8588 86.3863C87.0347 86.8397 84.3234 87.977 82.0416 89.6793" fill="#FDDD83"/>
<path d="M40.4761 98C40.121 99.9671 39.6026 101.816 39.1907 103.382C38.587 105.654 35.3485 106.236 33.4522 107.344C31.1157 108.701 28.8643 110.315 29.0064 114.561C29.191 120.206 35.4337 121.786 38.452 121.044C45.4475 119.32 50.0141 118.953 56.9101 120.546C66.1925 122.686 70.3258 128.622 73.8555 129.64C77.023 130.548 79.6081 129.675 81.3339 127.742C86.49 121.966 78.1167 115.794 77.2006 113.508C76.4193 111.555 77.5486 108.75 78.2943 106.956C78.4221 106.651 78.557 106.346 78.6991 106.049C71.5971 103.569 56.5266 99.1775 40.4903 98.0069" fill="#957750"/>
<path d="M46.3143 81.5498C45.244 78.9264 43.5233 76.5682 41.3549 74.7402C39.6621 73.3169 37.6196 72.1936 35.4092 72.0191C33.1988 71.8447 31.0933 72.8703 29.9391 74.7611C28.9668 76.3589 28.708 78.3055 29.3586 80.0567C30.0161 81.808 31.2402 83.2871 32.5832 84.5918C33.9262 85.8965 35.3322 87.1315 36.7312 88.3734C38.354 89.8177 40.5924 92.7062 40.9701 94.29C41.6626 97.5831 40.0468 101.462 39.4872 102.962C38.6898 105.035 35.5001 105.809 33.6185 106.905C31.3101 108.258 28.6801 110.686 29.1907 114.475C30.0021 120.461 35.4721 121.466 38.445 120.74C45.342 119.052 49.8467 118.71 56.6248 120.356C65.7461 122.575 69.7822 128.582 73.2517 129.622C76.3644 130.557 78.9176 129.692 80.6243 127.759C85.7376 121.968 77.5326 115.703 76.6512 113.393C76.6512 113.393 76.1966 112.682 76.4064 111.551C76.7002 109.981 77.3157 105.816 79.6031 103.353C80.7433 102.188 84.1498 100.855 86.2832 100.451C88.1229 100.095 89.9626 99.753 91.7882 99.3274C93.6139 98.9018 95.4256 98.2599 96.8945 97.0947C98.3635 95.9296 99 94.2062 99 92.3364C99 89.7618 97.8319 88.0873 95.8453 87.1036C93.8587 86.1198 91.5294 86.0361 89.34 86.3849C86.5351 86.8384 83.842 87.9757 81.5757 89.6781" stroke="#061922" stroke-width="2.40162" stroke-linecap="round" stroke-linejoin="round"/>
<path d="M61.8091 18.729L61.8101 18.73C68.0155 18.8823 73.1501 20.6038 77.2349 23.8716L77.2407 23.8774L77.2476 23.8823C77.4163 24.0073 77.5815 24.1456 77.7632 24.3003C77.7724 24.3114 77.7913 24.3342 77.8149 24.3579L77.9517 24.4946L78.144 24.4878C83.6627 24.3086 88.3108 25.811 92.1196 28.9771C95.9369 32.1501 98.9451 37.0232 101.121 43.6401L101.154 43.7407L101.229 43.8159L101.256 43.8442L101.311 43.8979L101.379 43.9312C104.727 45.5298 107.137 48.0257 108.625 51.4351C109.968 54.5137 110.562 58.3544 110.391 62.9751C106.028 55.3892 98.9615 51.3495 89.2515 50.8628C79.9134 45.7568 70.9899 44.4888 62.5024 47.1235C54.3683 46.1251 47.5119 48.1622 41.978 53.2407C36.3388 54.6631 32.2446 57.9726 29.7104 63.1597C28.6836 62.2526 27.4357 61.5953 25.9868 61.1841C24.0931 60.6245 22.0725 60.5413 19.9438 60.937L19.519 61.022C17.2914 61.4834 15.391 62.353 13.854 63.6265C12.8775 64.4373 12.1518 65.3359 11.689 66.3208C10.9392 60.6409 11.1004 56.5224 12.1118 53.9097L12.1128 53.9067C13.2368 50.9506 15.0359 48.8385 17.4888 47.5415L17.647 47.4585L17.7026 47.2886C20.5233 38.7428 24.1629 32.6377 28.5884 28.9146C32.9963 25.2062 38.2173 23.8316 44.2925 24.8052L44.3276 24.811H44.6089L44.7397 24.6733C48.7055 20.5301 54.3713 18.528 61.8091 18.729ZM62.1138 26.0464C63.5092 28.0433 64.042 29.3501 64.2134 31.0464C64.3905 32.7999 64.1843 34.949 64.0425 38.6938L64.9312 38.7271C65.0699 35.0651 65.2835 32.7919 65.0981 30.9565C64.907 29.0641 64.2944 27.6147 62.8423 25.5366L62.1138 26.0464Z" fill="#D97B00" stroke="#061922" stroke-width="0.889488"/>
<path d="M62.5435 25.7915C65.2986 29.0816 65.7687 32.3718 64.8286 38.482M110.746 64.5655C106.53 56.2115 99.3265 51.7855 89.1277 51.3015C79.8057 46.1811 70.9467 44.9396 62.5435 47.5769C54.442 46.5599 47.6592 48.587 42.1951 53.6443C36.4293 55.0682 32.319 58.4842 29.8499 63.9062C28.8048 62.833 27.4721 62.0685 25.8658 61.6125C23.9228 61.0374 21.8326 60.9812 19.6091 61.4582C17.4416 61.9071 15.6109 62.7488 14.1379 63.9693C12.5667 65.274 11.7039 66.7821 11.5566 68.5006M29.1071 37.7065C34.2773 39.5866 36.6274 42.8767 37.0974 47.5769M94.9099 39.4221C94.9099 43.1822 94.4399 46.0024 91.0637 48.1942" stroke="#061922" stroke-width="2.40162" stroke-linecap="round" stroke-linejoin="round"/>
<path d="M113.681 40.7881C116.532 40.8332 118.897 41.0863 120.782 41.54C122.641 41.9875 124.003 42.624 124.909 43.4189C128.191 47.2902 130.278 52.552 131.15 59.2266L131.231 59.8779C132.069 67.1292 131.279 73.4909 128.891 78.9756C128.758 76.9171 128.126 75.0755 126.988 73.46L126.986 73.4561L126.728 73.1104C125.404 71.4127 123.632 70.1829 121.44 69.4297L121.438 69.4287C120.373 69.0674 119.319 68.8569 118.271 68.7842H118.271C117.086 68.6971 115.913 68.7842 114.75 69.0449C112.993 69.428 111.521 70.1502 110.352 71.2207C110.75 68.924 111.025 66.7589 111.166 64.7217C111.913 53.9047 109.039 46.6111 102.362 43.0879C104.402 41.6129 107.787 40.8168 112.605 40.7832C112.956 40.7808 113.315 40.7824 113.681 40.7881ZM18.627 32.8291C18.5452 33.0969 18.4708 33.3659 18.4043 33.6367L18.3369 33.7812L18.7383 33.9658L18.3105 33.8564L18.3096 33.8584C18.3068 33.8691 18.3045 33.8799 18.3018 33.8906C17.779 35.9286 17.3522 39.3753 17.0078 44.1992C16.9547 44.9398 16.9035 45.7129 16.8545 46.5186C14.467 47.8476 12.6849 49.8948 11.5176 52.6338L11.2861 53.2061C10.2512 55.8719 10.0781 59.8607 10.7021 65.125C8.39741 59.4205 7.85923 53.4017 9.08105 47.0615C10.4162 40.1137 13.6104 35.4006 18.627 32.8291ZM52.6758 12.9854C48.9484 15.7878 46.2157 19.0079 44.4912 22.6523C44.3444 22.9624 44.2054 23.2756 44.0732 23.5918C37.9117 22.6916 32.5456 24.1334 28.0137 27.9336C23.9772 31.3185 20.6281 36.5509 17.9453 43.5918C18.2813 39.1395 18.689 35.9874 19.1621 34.1143L19.2285 33.9727L18.8271 33.7871L19.2568 33.8916V33.8896L19.2578 33.8906C19.2748 33.8204 19.2943 33.7508 19.3125 33.6807C19.4466 33.1683 19.6107 32.6529 19.8037 32.1299L19.8047 32.125C21.6687 26.8847 25.6448 22.4197 31.7861 18.7461C38.055 15.008 45.0115 13.085 52.6758 12.9854ZM92.6133 16.0693C98.9602 16.0283 105.598 18.9665 112.549 24.9795C119.064 30.6159 123.039 36.3122 124.537 42.0508C123.588 41.4707 122.401 41.0153 120.99 40.6758C119.021 40.2016 116.586 39.9442 113.695 39.8984H113.694C113.326 39.8927 112.964 39.8912 112.609 39.8936C108.171 39.9232 104.774 40.5856 102.486 41.9434C102.225 42.0985 101.978 42.2632 101.746 42.4365C99.5529 36.0267 96.5338 31.1981 92.6631 27.9912C88.8358 24.8203 84.2071 23.2623 78.8027 23.2979C79.7721 21.8106 81.3978 20.3728 83.7207 18.999C85.8955 17.7149 88.0553 16.83 90.1943 16.3477C90.3344 16.3161 90.4743 16.2859 90.6143 16.2578C91.2136 16.1521 91.8337 16.0939 92.4697 16.0693L92.4717 16.0703L92.6133 16.0693ZM54.3086 12.9102C58.2853 10.215 64.2271 9.06694 72.2139 9.55371H72.2148C79.6727 9.98803 86.0245 11.8935 91.2754 15.2646C91 15.2966 90.7273 15.3353 90.458 15.3828L90.4473 15.3848C88.0574 15.8642 85.6622 16.8137 83.2695 18.2334C80.778 19.6965 78.9865 21.2861 77.9297 23.0146C77.8766 22.9727 77.8239 22.9301 77.7695 22.8896H77.7705C73.6426 19.5974 68.5118 17.8451 62.4121 17.5908L61.8193 17.5713C55.1131 17.3904 49.707 18.9601 45.6494 22.3213C47.4727 18.8129 50.3145 15.7019 54.1875 12.9883L54.1934 12.9893L54.3086 12.9102Z" fill="#FFCC00" stroke="#061922" stroke-width="0.889488"/>
<path d="M11.5677 68.0676C8.17397 61.4686 7.20634 54.4361 8.64377 46.9773C10.0812 39.4975 13.6642 34.4993 19.3859 31.9757C21.2931 26.614 25.3529 22.0772 31.5584 18.3652C38.2757 14.3597 45.7714 12.4163 54.0593 12.5421C58.1542 9.76692 64.2124 8.62048 72.241 9.10981C80.2835 9.57817 87.078 11.7452 92.6103 15.6249C99.1033 15.583 105.842 18.5889 112.839 24.6427C119.837 30.6964 123.974 36.8621 125.243 43.1255C128.707 47.208 130.846 52.7794 131.673 59.8258C132.613 67.9627 131.526 75.0231 128.42 81" stroke="#061922" stroke-width="2.40162" stroke-linecap="round" stroke-linejoin="round"/>
<path d="M102 43C108.648 46.2937 111.6 53.499 110.862 64.616C110.699 67.0599 110.354 69.7004 109.833 72.5236V72.6149C111.004 70.9856 112.676 69.9252 114.842 69.4265C115.925 69.1667 117.015 69.0824 118.119 69.1737C119.094 69.2369 120.075 69.4476 121.07 69.7987C123.257 70.5783 124.97 71.8704 126.215 73.6823C127.603 75.733 128.185 78.1698 127.949 81" stroke="#061922" stroke-width="2.40162" stroke-linecap="round" stroke-linejoin="round"/>
<path d="M44 24H44.057C48.1937 19.9868 54.082 18.076 61.7217 18.2678C68.1013 18.4132 73.4128 20.0595 77.6492 23.2066C77.8415 23.3388 78.0266 23.4843 78.2188 23.6364C79.1872 21.9306 81.0312 20.3306 83.744 18.8364C86.1363 17.514 88.5215 16.6347 90.8925 16.1917C91.576 16.0793 92.2809 16.0198 93 16" stroke="#061922" stroke-width="2.40162" stroke-linecap="round" stroke-linejoin="round"/>
<path d="M44 24C45.828 19.3846 49.1662 15.387 54 12" stroke="#061922" stroke-width="2.40162" stroke-linecap="round" stroke-linejoin="round"/>
<path d="M78 24C78 24 78.0359 24.041 78.0574 24.0614C89.5409 23.7064 97.517 30.0216 102 43" stroke="#061922" stroke-width="2.40162" stroke-linecap="round" stroke-linejoin="round"/>
<path d="M102 43C104.156 40.9081 108.088 39.9102 113.782 40.0063C119.354 40.1024 123.095 41.0855 125 42.9483" stroke="#061922" stroke-width="2.40162" stroke-linecap="round" stroke-linejoin="round"/>
<path d="M17 47C17.3533 40.7069 17.8133 36.3747 18.3867 34.0175L18.4667 33.8334C18.6067 33.2246 18.7867 32.6159 19 32" stroke="#061922" stroke-width="2.40162" stroke-linecap="round" stroke-linejoin="round"/>
<path d="M11.7673 68C10.6991 61.2778 10.7473 56.4097 11.9051 53.3958C13.0423 50.3819 14.8755 48.2013 17.391 46.861C22.9595 29.861 31.8292 22.3401 44 24.3054" stroke="#061922" stroke-width="2.40162" stroke-linecap="round" stroke-linejoin="round"/>
<mask id="path-19-inside-1_468_9399" fill="white">
<path d="M90.6872 77.3546C92.076 71.5678 90.1471 66.0686 87.3133 61.0815C87.5448 58.7317 87.145 57.42 86.177 56.424C84.9846 55.1895 83.3643 54.5862 80.6287 55.2736C77.9212 53.7305 75.0243 52.5801 71.5802 51.8086C68.1362 51.03 65.2393 50.7634 62.1671 50.9598C60.161 49.2904 58.0216 49.1221 56.4153 49.7253C55.1107 50.2093 53.6096 51.8717 53.0415 54.3127C48.6786 57.2937 45.1925 61.1235 43.6563 66.8753C40.2544 79.6343 44.1964 88.6617 62.146 92.2951C80.5235 96.0126 87.8464 89.1737 90.6942 77.3546"/>
</mask>
<path d="M90.6872 77.3546C92.076 71.5678 90.1471 66.0686 87.3133 61.0815C87.5448 58.7317 87.145 57.42 86.177 56.424C84.9846 55.1895 83.3643 54.5862 80.6287 55.2736C77.9212 53.7305 75.0243 52.5801 71.5802 51.8086C68.1362 51.03 65.2393 50.7634 62.1671 50.9598C60.161 49.2904 58.0216 49.1221 56.4153 49.7253C55.1107 50.2093 53.6096 51.8717 53.0415 54.3127C48.6786 57.2937 45.1925 61.1235 43.6563 66.8753C40.2544 79.6343 44.1964 88.6617 62.146 92.2951C80.5235 96.0126 87.8464 89.1737 90.6942 77.3546" fill="#FDDD83"/>
<path d="M87.3133 61.0815L86.4281 60.9943L86.4004 61.2753L86.5399 61.5209L87.3133 61.0815ZM86.177 56.424L85.5372 57.0419L85.5391 57.0439L86.177 56.424ZM80.6287 55.2736L80.1882 56.0464L80.4988 56.2234L80.8455 56.1363L80.6287 55.2736ZM71.5802 51.8086L71.3841 52.6762L71.3858 52.6765L71.5802 51.8086ZM62.1671 50.9598L61.5981 51.6435L61.8703 51.8701L62.2238 51.8475L62.1671 50.9598ZM56.4153 49.7253L56.7247 50.5593L56.7281 50.558L56.4153 49.7253ZM53.0415 54.3127L53.5433 55.0471L53.8293 54.8517L53.9078 54.5143L53.0415 54.3127ZM43.6563 66.8753L42.797 66.6457L42.7969 66.6461L43.6563 66.8753ZM62.146 92.2951L61.9695 93.1669L61.9697 93.1669L62.146 92.2951ZM90.6872 77.3546L91.5521 77.5622C93.0192 71.4494 90.9624 65.703 88.0867 60.642L87.3133 61.0815L86.5399 61.5209C89.3317 66.4342 91.1328 71.6863 89.8223 77.147L90.6872 77.3546ZM87.3133 61.0815L88.1985 61.1687C88.4438 58.6782 88.0353 57.0599 86.8149 55.8041L86.177 56.424L85.5391 57.0439C86.2546 57.7801 86.6457 58.7851 86.4281 60.9943L87.3133 61.0815ZM86.177 56.424L86.8168 55.806C86.1245 55.0893 85.2788 54.5297 84.1929 54.2641C83.1182 54.0012 81.8766 54.0429 80.4119 54.4109L80.6287 55.2736L80.8455 56.1363C82.1163 55.817 83.0527 55.8166 83.7702 55.9921C84.4764 56.1648 85.037 56.5241 85.5372 57.0419L86.177 56.424ZM80.6287 55.2736L81.0691 54.5008C78.2843 52.9136 75.3044 51.7314 71.7747 50.9406L71.5802 51.8086L71.3858 52.6765C74.7441 53.4289 77.5581 54.5473 80.1882 56.0464L80.6287 55.2736ZM71.5802 51.8086L71.7764 50.941C68.2629 50.1467 65.2802 49.8695 62.1103 50.0722L62.1671 50.9598L62.2238 51.8475C65.1985 51.6573 68.0095 51.9133 71.3841 52.6762L71.5802 51.8086ZM62.1671 50.9598L62.736 50.2761C60.4932 48.4098 58.0191 48.1729 56.1026 48.8926L56.4153 49.7253L56.7281 50.558C58.0241 50.0713 59.8287 50.1711 61.5981 51.6435L62.1671 50.9598ZM56.4153 49.7253L56.106 48.8914C54.4501 49.5056 52.7918 51.4617 52.1751 54.111L53.0415 54.3127L53.9078 54.5143C54.4275 52.2817 55.7712 50.913 56.7247 50.5593L56.4153 49.7253ZM53.0415 54.3127L52.5396 53.5782C48.0561 56.6418 44.4031 60.632 42.797 66.6457L43.6563 66.8753L44.5157 67.1048C45.9818 61.6151 49.3011 57.9457 53.5433 55.0471L53.0415 54.3127ZM43.6563 66.8753L42.7969 66.6461C41.066 73.1378 41.1475 78.8835 44.149 83.4926C47.1423 88.0893 52.8946 91.3299 61.9695 93.1669L62.146 92.2951L62.3225 91.4233C53.4478 89.6268 48.2543 86.537 45.6397 82.5219C43.0332 78.5192 42.8448 73.3717 44.5158 67.1044L43.6563 66.8753ZM62.146 92.2951L61.9697 93.1669C71.2647 95.0472 77.9507 94.2982 82.7054 91.4114C87.4724 88.517 90.1064 83.5912 91.5589 77.563L90.6942 77.3546L89.8294 77.1463C88.4341 82.9372 85.9828 87.3403 81.7821 89.8908C77.569 92.4488 71.4048 93.2605 62.3224 91.4232L62.146 92.2951Z" fill="#061922" mask="url(#path-19-inside-1_468_9399)"/>
<path d="M90.6872 77.3546C92.076 71.5678 90.1471 66.0686 87.3133 61.0815C87.5448 58.7317 87.145 57.42 86.177 56.424C84.9846 55.1895 83.3643 54.5862 80.6287 55.2736C77.9212 53.7305 75.0243 52.5801 71.5802 51.8086C68.1362 51.03 65.2393 50.7634 62.1671 50.9598C60.161 49.2904 58.0216 49.1221 56.4153 49.7253C55.1107 50.2093 53.6096 51.8717 53.0415 54.3127C48.6786 57.2937 45.1925 61.1235 43.6563 66.8753C40.2544 79.6343 44.1964 88.6617 62.146 92.2951C80.5235 96.0126 87.8464 89.1737 90.6942 77.3546H90.6872Z" stroke="#061922" stroke-width="2.40162" stroke-linecap="round" stroke-linejoin="round"/>
<path d="M67.0352 76.707C66.9795 76.8381 66.9107 77.0021 66.8262 77.1875C66.5983 77.6872 66.2747 78.3463 65.8877 78.9912C65.498 79.6407 65.0576 80.2532 64.6025 80.6777C64.1368 81.1122 63.7381 81.2751 63.4092 81.2227H63.4102C62.8612 81.1327 62.5413 80.8294 62.3457 80.3877C62.1386 79.9198 62.0762 79.2981 62.1035 78.6387C62.1305 77.9873 62.2428 77.3425 62.3506 76.8564C62.4035 76.6178 62.4541 76.4198 62.4922 76.2812L64.9541 75.4893L67.0352 76.707Z" fill="#B53F3C" stroke="#061922" stroke-width="0.889488"/>
<path d="M67.5955 76.52C67.5955 76.52 65.4772 82.0051 63.3378 81.6614C60.469 81.1915 62.1314 75.9308 62.1314 75.9308L65.0072 75.0049L67.5955 76.52Z" stroke="#061922" stroke-width="2.40162" stroke-linecap="round" stroke-linejoin="round"/>
<path d="M65.9766 69.8215C61.9995 68.8816 59.5375 70.565 59.2219 72.8867C58.8501 75.6574 62.701 77.6494 64.5107 74.6473C65.0017 78.1895 69.8626 78.6385 70.9849 75.8327C71.9598 73.3918 69.9467 70.7684 65.9766 69.8285" fill="white"/>
<path d="M65.9766 69.8215C61.9995 68.8816 59.5375 70.565 59.2219 72.8867C58.8501 75.6574 62.701 77.6494 64.5107 74.6473C65.0017 78.1895 69.8626 78.6385 70.9849 75.8327C71.9598 73.3918 69.9467 70.7684 65.9766 69.8285V69.8215Z" stroke="#061922" stroke-width="2.40162" stroke-linecap="round" stroke-linejoin="round"/>
<path d="M57.6152 69.1902L59.488 70.7263" stroke="#061922" stroke-width="0.889488"/>
<path d="M58.1338 69.2178L60.0066 70.7609" stroke="#061922" stroke-width="2.40162" stroke-linecap="round" stroke-linejoin="round"/>
<path d="M56.3032 73.9106L58.66 73.1531" stroke="#061922" stroke-width="0.889488"/>
<path d="M56.8286 73.9536L59.1854 73.196" stroke="#061922" stroke-width="2.40162" stroke-linecap="round" stroke-linejoin="round"/>
<path d="M73.4735 73.3985L70.6748 73.3774" stroke="#061922" stroke-width="0.889488"/>
<path d="M73.993 73.4261L71.1943 73.4121" stroke="#061922" stroke-width="2.40162" stroke-linecap="round" stroke-linejoin="round"/>
<path d="M72.1556 78.2666L70.3179 76.5481" stroke="#061922" stroke-width="0.889488"/>
<path d="M72.6747 78.3013L70.8369 76.5828" stroke="#061922" stroke-width="2.40162" stroke-linecap="round" stroke-linejoin="round"/>
<path d="M58.6792 65.1934C58.8519 64.4247 59.6048 63.9454 60.3755 64.1113V64.1104C61.1436 64.2826 61.6227 65.0338 61.4585 65.8037C61.2874 66.5736 60.5362 67.0544 59.7651 66.8896H59.7661C58.9955 66.7184 58.5142 65.9661 58.6802 65.1943L58.6792 65.1934Z" fill="black" stroke="#061922" stroke-width="0.889488"/>
<path d="M72.3784 68.1609C72.5511 67.3922 73.304 66.913 74.0747 67.0789V67.0779C74.8431 67.2503 75.3222 68.0094 75.1567 68.7732C74.9848 69.5415 74.2279 70.0217 73.4644 69.8572H73.4653C72.6996 69.6857 72.2126 68.931 72.3784 68.1609Z" fill="black" stroke="#061922" stroke-width="0.889488"/>
<path d="M60.2593 85.4353C60.2593 85.4353 61.9567 87.0907 64.6432 86.3191" stroke="#061922" stroke-width="2.40162" stroke-linecap="round" stroke-linejoin="round"/>
<path d="M95.1978 62.1257C96.1686 62.5731 96.7286 62.8499 96.9106 62.9695L96.9321 62.9832C97.5285 63.3287 97.9282 63.7398 98.1587 64.2107L98.2466 64.4167C98.385 64.8226 98.4567 65.496 98.4292 66.4773C98.4018 67.4552 98.2783 68.6975 98.0552 70.2068V70.2087C97.9024 71.278 97.5036 71.9887 96.9126 72.4158L96.7915 72.4978L96.7886 72.4998C96.1008 72.9419 95.012 73.1745 93.4673 73.1365C93.5501 72.5844 93.6644 71.1951 93.7974 69.0115C93.8815 67.8055 93.9476 66.8845 93.9966 66.2488C94.0211 65.9309 94.0416 65.6858 94.0571 65.5125C94.0649 65.4256 94.0714 65.3577 94.0767 65.3093C94.0805 65.2739 94.0827 65.2559 94.0835 65.2498L94.0854 65.24C94.1888 64.691 94.4053 64.0536 94.7329 63.323C94.9244 62.9056 95.08 62.5062 95.1978 62.1257Z" fill="#494F58" stroke="#061922" stroke-width="0.889488"/>
<path d="M94.9128 61.4968C96.1613 62.065 96.9048 62.4297 97.1574 62.591C97.9009 63.0259 98.4059 63.5801 98.6654 64.2534C99.0021 65.2284 98.946 67.2275 98.4971 70.2647C98.3217 71.4992 97.8307 72.362 97.0311 72.867C96.1403 73.4351 94.7725 73.6666 92.9137 73.5544C92.6822 73.5263 92.4437 73.5053 92.1982 73.4842M94.2885 61.2092C94.5059 61.3144 94.7164 61.4126 94.9058 61.5038" stroke="#061922" stroke-width="2.40162" stroke-linecap="round" stroke-linejoin="round"/>
<path d="M43.6587 51.322C43.6231 51.715 43.6145 52.1392 43.6333 52.5916C43.6265 53.3769 43.5653 54.0545 43.4536 54.615C43.4518 54.6212 43.4468 54.6387 43.436 54.6726C43.4213 54.7191 43.3997 54.7839 43.3716 54.8669C43.3155 55.0326 43.2341 55.2666 43.1274 55.5691C42.9141 56.1741 42.6005 57.0492 42.187 58.1951C41.7763 59.329 41.4579 60.231 41.2319 60.8982C41.0515 61.431 40.9247 61.8332 40.8589 62.0867C39.4192 61.4958 38.5066 60.8505 38.0483 60.1794C37.6372 59.5324 37.5382 58.6792 37.8374 57.573C38.2381 56.1061 38.6231 54.9233 38.9917 54.0193C39.318 53.2191 39.6196 52.6666 39.8872 52.3279L39.9995 52.196L40.1577 52.0378C40.537 51.6949 41.051 51.4717 41.7339 51.3884L41.7437 51.3875L41.7544 51.3855C41.9642 51.3497 42.5864 51.3237 43.6587 51.322Z" fill="#494F58" stroke="#061922" stroke-width="0.889488"/>
<path d="M44.8853 50.842C44.6328 50.842 44.3873 50.842 44.1628 50.8701C42.795 50.8701 41.9673 50.8911 41.6797 50.9402C40.817 51.0384 40.1506 51.3541 39.6737 51.8872C38.9652 52.6447 38.2077 54.4965 37.408 57.4495C37.0784 58.6489 37.1696 59.638 37.6816 60.4236C38.2778 61.2863 39.4562 62.0439 41.2098 62.6962C41.4272 62.7663 41.6377 62.8435 41.8481 62.9277" stroke="#061922" stroke-width="2.40162" stroke-linecap="round" stroke-linejoin="round"/>
<path d="M63.209 53.5974C65.1286 52.6444 67.0989 52.2827 69.1152 52.4978L69.1387 52.5007H69.4258L71.0947 52.864L71.333 52.9412L71.3359 52.9421C73.2827 53.5598 74.9424 54.6862 76.3203 56.3318C76.3698 56.397 76.4201 56.4605 76.4688 56.5242C77.4123 57.7613 78.1915 58.7128 78.8066 59.3621V59.3611C79.9073 60.5335 81.1391 61.5283 82.4951 62.3289L82.5039 62.3337L85.9971 64.2839L86.2139 63.8953L86.0088 64.2908C87.2389 64.9302 88.2323 65.5201 88.9961 66.0701L89.3096 66.3035C89.4737 66.4309 89.6308 66.5573 89.7803 66.6833C90.7339 67.4884 91.3921 68.2696 91.7812 69.0183C91.8197 69.0926 91.8565 69.1662 91.8896 69.24V69.239L91.8906 69.241L92.2959 69.0583L91.8965 69.2537C92.449 70.3831 92.5893 71.7909 92.2715 73.5085L92.2559 73.5037L92.1553 73.99L91.4746 77.2517L91.4238 77.4929L91.6025 77.6638C91.883 77.9312 92.1078 78.1891 92.2725 78.4363C92.4771 78.7919 92.5233 79.1748 92.3945 79.6169L92.3936 79.6199C92.2915 79.98 92.139 80.2239 91.9678 80.3806L91.9648 80.3826C91.5973 80.7235 91.1072 80.8786 90.4102 80.7869L90.4033 80.7859C89.4247 80.6726 88.6065 79.9552 87.9971 78.3748L87.9961 78.3728C87.4098 76.8677 87.366 74.8135 87.9258 72.1736L87.9277 72.1648L87.9297 72.155C88.2668 70.1538 87.9655 68.4394 86.9668 67.0642C86.0958 65.8578 84.7546 64.9997 83.0107 64.4402H83.0098C82.6407 64.3174 82.2582 64.2086 81.8623 64.115L81.8516 64.113L54.9941 58.4734L54.9844 58.4714L54.5469 58.3962C52.5299 58.081 50.8057 58.2495 49.4238 58.9675L49.1328 59.1296C47.6464 59.9689 46.6637 61.4182 46.1729 63.3962L46.1709 63.405L46.1689 63.4148C45.637 66.0467 44.778 67.9066 43.6377 69.0535L43.6367 69.0544C42.4639 70.2405 41.4122 70.5731 40.4385 70.2869L40.4336 70.2859L40.2061 70.2107C39.7029 70.0194 39.387 69.7123 39.2139 69.3054L39.208 69.2917L39.1758 69.2136C39.1072 69.022 39.0842 68.7665 39.1328 68.4265L39.1338 68.4187C39.1894 67.9685 39.3866 67.6394 39.7168 67.3992C39.9689 67.2282 40.2635 67.0766 40.6182 66.9412L40.8457 66.8552L40.8955 66.6169L41.5752 63.3552L41.5762 63.3474L41.5771 63.3484L41.582 63.3181L41.6328 63.0818C41.6606 62.9628 41.6894 62.8459 41.7197 62.7312C42.1454 61.1246 42.8253 59.9419 43.7246 59.1404C44.5227 58.4517 45.7047 57.8927 47.3057 57.5027H47.3076C48.2636 57.2654 49.5271 57.0786 51.1104 56.9675L51.0791 56.5242L51.1221 56.9666L55.0918 56.5876L55.0498 56.1453L55.0996 56.5867C55.5001 56.5416 55.8966 56.4827 56.2891 56.4089C57.4675 56.1879 58.6123 55.8389 59.7197 55.3689L59.7236 55.3669C60.5729 54.9958 61.7382 54.4094 63.209 53.5974ZM58.5957 42.365C58.6319 42.4042 58.666 42.4402 58.6982 42.4724C59.7294 43.5246 60.8203 44.1849 61.9531 44.4177V44.4167C63.0129 44.6429 64.9936 44.606 67.8223 44.3406C70.6595 44.0744 72.6485 44.0816 73.8252 44.3328H73.8271C74.6119 44.4977 76.4767 45.1867 79.4697 46.4402L79.4766 46.4431C80.9673 47.038 82.4234 47.6401 83.8438 48.2488L83.8789 48.2644L83.916 48.2732C84.4302 48.3946 84.9427 48.3828 85.4561 48.2517C87.807 50.03 89.7321 52.0661 91.2217 54.3474L91.2246 54.3513C92.8463 56.7735 93.9297 59.2054 94.4844 61.6335V61.6345C95.0457 64.1951 95.1041 67.1356 94.6465 70.4636L94.6455 70.4734C94.5008 71.7409 94.2628 72.6923 93.9609 73.3474L93.9561 73.3582C93.87 73.5589 93.7545 73.6803 93.623 73.7546C93.4797 73.801 93.3185 73.8129 93.125 73.78C93.4915 71.8925 93.3676 70.2468 92.7002 68.8748C92.1955 67.7517 91.2294 66.6671 89.8535 65.5994L89.8525 65.5984C89.0059 64.9455 87.8743 64.2533 86.4668 63.5261C86.451 63.5179 86.4349 63.509 86.4189 63.5007H86.418L82.9375 61.5574C81.8202 60.8966 80.7902 60.095 79.8516 59.1609L79.4541 58.7517C78.8451 58.1017 78.0347 57.1196 77.0215 55.7849L76.6719 56.0486L77.0088 55.7683C75.5262 53.9951 73.723 52.7666 71.6045 52.0945L71.3477 52.0115L71.3271 52.0046L71.3057 51.9998L69.5654 51.6208L69.5186 51.6111H69.1875C67.0032 51.3823 64.8709 51.7791 62.8135 52.8005L63.0107 53.199L62.9697 53.1238L62.7969 52.8093H62.7959C62.7666 52.8255 62.737 52.8412 62.708 52.8572C61.2811 53.6368 60.1669 54.2021 59.3672 54.5515C57.9641 55.1435 56.5161 55.5313 55.0078 55.7019L51.04 56.0798C49.4736 56.1901 48.1842 56.3704 47.1729 56.6208C47.1471 56.6271 47.1211 56.6321 47.0957 56.6384C45.4074 57.0479 44.0769 57.6539 43.1416 58.4675L43.1396 58.4705C42.0092 59.4689 41.2381 60.9189 40.7891 62.781C40.6594 62.7448 40.5464 62.6925 40.4492 62.6218L40.3408 62.53C40.249 62.4409 40.1911 62.3377 40.1699 62.2078L40.1611 62.0681V62.0583C40.1611 61.3262 40.3311 60.355 40.6836 59.1384C41.6266 55.9071 42.8832 53.2357 44.4443 51.1199L44.4453 51.1189C45.9089 49.115 47.8643 47.3193 50.3223 45.738L50.3232 45.739C52.758 44.1805 55.5163 43.0552 58.5957 42.365Z" fill="#494F58" stroke="#061922" stroke-width="0.889488"/>
<path d="M92.6533 73.8912C93.0531 71.9833 92.9339 70.377 92.2956 69.0724C91.8326 68.0413 90.9278 67.0102 89.581 65.965C88.7533 65.3267 87.6311 64.6393 86.2142 63.9098L82.721 61.9599C81.4024 61.1813 80.2029 60.2133 79.1297 59.07C78.4984 58.4036 77.6778 57.4006 76.6677 56.0679C75.2368 54.3564 73.5043 53.178 71.4701 52.5327L71.2106 52.4485L69.471 52.0697C69.3588 52.0697 69.2606 52.0697 69.1624 52.0697C67.0581 51.8452 65.0029 52.224 63.0109 53.213C61.5379 54.0267 60.3805 54.6089 59.5458 54.9736C58.1009 55.5839 56.6068 55.9837 55.0497 56.159L51.0796 56.5378C49.4803 56.65 48.1897 56.8324 47.2007 57.0849C45.5523 57.4847 44.2967 58.0669 43.434 58.8175C42.3538 59.7714 41.6032 61.1953 41.1754 63.0962L41.1403 63.2786C40.986 63.2715 40.8597 63.2645 40.7686 63.2505C40.4669 63.1803 40.2214 63.0541 40.032 62.8647C39.8146 62.6543 39.7094 62.3877 39.7164 62.0721C39.7234 61.2795 39.8988 60.2624 40.2565 59.0279C41.2105 55.7592 42.4871 53.0377 44.0863 50.8703C45.5874 48.8151 47.5864 46.9843 50.0835 45.3781C52.6367 43.7437 55.5336 42.5794 58.7672 41.885C59.2442 41.7868 59.7282 41.6956 60.2122 41.6184M41.1403 63.2715L40.4599 66.5332C40.0811 66.6805 39.7445 66.8488 39.4569 67.0452C39.022 67.3609 38.7625 67.8028 38.6923 68.3709C38.6292 68.8128 38.6643 69.1846 38.8045 69.4862C39.0641 70.0964 39.5691 70.5103 40.3126 70.7207C41.498 71.0784 42.7115 70.6295 43.953 69.374C45.1876 68.1395 46.0714 66.1825 46.6044 63.51C47.0814 61.6091 48.0003 60.2834 49.3611 59.5189C50.7639 58.6842 52.6087 58.4878 54.9024 58.9157L81.7601 64.5552C82.1459 64.6463 82.5176 64.7515 82.8754 64.8708C84.5658 65.4039 85.8073 66.2246 86.607 67.3328C87.5188 68.5884 87.8134 70.1666 87.4908 72.0885C86.9226 74.768 86.9507 76.9143 87.582 78.5416C88.2203 80.197 89.1461 81.0949 90.3526 81.2351C91.1452 81.3333 91.7835 81.158 92.2675 80.7161C92.513 80.4916 92.7024 80.176 92.8216 79.7481C92.983 79.194 92.9268 78.6819 92.6533 78.212C92.4569 77.9244 92.2114 77.6368 91.9098 77.3492L92.5902 74.0876L92.9759 74.2138C93.2705 74.277 93.5511 74.2629 93.8036 74.1717C94.0491 74.0455 94.2385 73.8351 94.3648 73.5405C94.6945 72.818 94.9329 71.8149 95.0873 70.5313C95.5502 67.1645 95.4941 64.1694 94.9189 61.546C94.3508 59.0489 93.2425 56.5729 91.5941 54.1109C90.037 51.726 88.0168 49.6077 85.5478 47.7699C84.9937 47.3701 84.4255 46.9703 83.8293 46.5915" stroke="#061922" stroke-width="2.40162" stroke-linecap="round" stroke-linejoin="round"/>
<path fill-rule="evenodd" clip-rule="evenodd" d="M50.3283 43.9048C51.5067 43.4138 52.7693 42.7755 54.1091 41.9829C55.1893 41.3516 56.9569 40.9448 59.3978 40.7695C61.8107 40.6362 63.9992 40.7695 65.9562 41.1693C67.4923 41.4919 70.0596 42.2214 73.6719 43.3507C77.8174 44.6413 80.3004 45.3919 81.1211 45.6163C85.0631 46.6474 88.451 48.4361 91.2848 50.9823C91.9442 51.5925 92.344 52.5605 92.4843 53.8792C92.5965 54.8542 92.5544 55.7871 92.358 56.6779C92.1546 57.6459 91.846 58.3192 91.4391 58.691C91.1235 58.9716 90.7447 59.1259 90.3098 59.1609C88.3879 58.1369 86.4169 56.8182 84.4108 55.2049C83.6673 54.6087 82.2995 53.7459 80.3145 52.6026C79.1641 51.9222 77.5859 51.2558 75.5728 50.6035C73.7771 50.0003 71.9885 49.5163 70.1998 49.1375C68.306 48.7447 66.1807 48.5694 63.8309 48.6114C61.8248 48.6746 60.1834 48.864 58.9209 49.1796C58.3667 49.3199 57.5671 49.4532 56.522 49.5864C55.5189 49.7337 54.8105 49.86 54.3896 49.9652C53.2814 50.2388 52.4958 50.4211 52.0398 50.5123C51.3384 50.6666 50.7352 50.6877 50.2231 50.5895C49.4936 50.4281 49.0938 50.1476 49.0167 49.7407C48.9465 49.4672 49.0307 48.7728 49.2622 47.6715L49.3884 47.0683C49.4796 46.6054 49.5708 46.2266 49.662 45.939C49.8794 45.1674 50.1039 44.487 50.3283 43.8908V43.9048Z" fill="#464F59"/>
<path d="M65.2993 36.375V36.376C67.9939 36.4675 70.8084 36.8265 73.7212 37.4609C76.6997 38.1107 79.4339 38.9735 81.9312 40.0332H81.9321C84.1082 40.9477 85.9313 41.9413 87.4136 43.0107V43.0117C89.426 44.4875 90.9179 46.076 91.9019 47.7598L92.0923 48.0977C92.9397 49.7051 93.3047 51.2856 93.2046 52.8467V52.8486L93.1997 52.8838L93.0171 54.0908C92.8708 54.7428 92.6028 55.1564 92.2534 55.3965L92.2427 55.4043C91.8369 55.701 91.3292 55.7914 90.6597 55.6045C89.7579 55.3247 88.465 54.5787 86.7554 53.3164C84.6542 51.7417 82.9768 50.6159 81.7241 49.9521L81.7231 49.9512C80.0268 49.0553 78.364 48.3289 76.7427 47.7734H76.7417C76.0138 47.4893 75.3454 47.2698 74.7437 47.1191C73.4766 46.7587 72.5415 46.5143 71.9644 46.4092C71.3683 46.2591 70.4298 46.0894 69.1685 45.9004H69.1694C68.5652 45.7803 67.8483 45.6939 67.0259 45.624H67.0269C65.3615 45.4676 63.573 45.4369 61.6548 45.5381H61.6528C60.4296 45.6073 58.7676 45.8633 56.6753 46.2988L55.7524 46.4961C53.6862 46.941 52.2286 47.0722 51.3325 46.9453H51.3335C50.6384 46.8452 50.1961 46.5522 49.9312 46.0977L49.9302 46.0967L49.8511 45.9443C49.6847 45.5821 49.6291 45.1293 49.7114 44.5615L50.0327 43.3721C50.4949 41.9907 51.3466 40.7709 52.606 39.7061L52.8638 39.4941C54.4601 38.2295 56.532 37.3201 59.1069 36.791L59.1079 36.792C60.8689 36.4383 62.9313 36.2987 65.2993 36.375Z" fill="#5E666C" stroke="#061922" stroke-width="0.889488"/>
<path d="M49.6056 43.2614C50.1282 41.689 51.122 40.3248 52.5868 39.1609C54.2504 37.8429 56.3924 36.9103 59.0203 36.3708C60.8237 36.0085 62.9215 35.8698 65.3138 35.9469C68.0374 36.0394 70.8787 36.4016 73.8157 37.0413C76.819 37.6965 79.5794 38.5674 82.1042 39.6388C84.3051 40.5637 86.16 41.5734 87.6764 42.6679C89.8626 44.2711 91.4673 46.0207 92.4831 47.9013C93.3737 49.5893 93.7639 51.2695 93.6461 52.9421C93.5651 55.2929 93.0204 54.5082 92.5052 56.8128M93.6387 52.9498L93.4547 54.1753C93.2928 54.9075 92.9763 55.4393 92.5052 55.7631C91.9678 56.1562 91.3127 56.2486 90.5398 56.0328C89.5608 55.7322 88.2137 54.9461 86.4913 53.6743C84.3934 52.102 82.7372 50.9921 81.5153 50.3446C79.837 49.4583 78.1955 48.7415 76.5982 48.1942C75.8694 47.909 75.207 47.6932 74.6181 47.5468C73.3446 47.1845 72.4319 46.9456 71.8798 46.8454C71.3057 46.6989 70.3708 46.5294 69.0827 46.3367C68.5011 46.2211 67.8018 46.1363 66.9848 46.0669C65.3433 45.9128 63.5767 45.8819 61.6775 45.9821C60.3158 46.0592 58.3725 46.3752 55.8477 46.9302C53.7719 47.3772 52.2482 47.5237 51.2692 47.3849C50.4668 47.2693 49.8927 46.9148 49.5467 46.3213C49.2523 45.8203 49.164 45.2037 49.2744 44.4715L49.6056 43.246C48.7738 45.4426 49.1564 43.9936 48.7295 46.3367" stroke="#061922" stroke-width="2.40162" stroke-linecap="round" stroke-linejoin="round"/>
<path fill-rule="evenodd" clip-rule="evenodd" d="M77.6507 40.9801C76.8336 40.7026 76.0239 40.4483 75.2068 40.2248C75.0228 40.1631 74.8388 40.1169 74.6474 40.086C74.0953 39.9319 73.5286 39.7931 72.947 39.6621C72.3655 39.5311 71.7987 39.4155 71.2246 39.3076C71.0185 39.269 70.8197 39.2382 70.6283 39.2074C68.7955 38.9145 66.9405 38.7526 65.0414 38.7141C61.2432 38.637 58.3135 39.1149 56.2524 40.1477C55.8549 40.4637 55.428 40.9878 54.9864 41.7123C54.6477 42.2596 54.3828 42.8068 54.1987 43.3618C60.323 42.1979 65.8805 42.0746 70.8786 42.9764C71.3424 43.0457 71.8061 43.1382 72.2772 43.2461C72.6968 43.3386 73.1163 43.4388 73.5359 43.5467C73.7347 43.6007 73.9481 43.6546 74.1616 43.7086C77.5035 44.6566 80.9116 46.1596 84.3859 48.2021C85.7845 49.0114 87.2052 49.9209 88.6479 50.9152C88.6774 50.3448 88.6479 49.7436 88.5596 49.1039C88.4418 48.2407 88.2578 47.5932 87.9928 47.1539C87.6836 46.7531 87.323 46.3754 86.9181 46.0286C85.4165 44.6412 83.2818 43.3386 80.5141 42.1362C79.5572 41.72 78.6002 41.3424 77.636 40.9955L77.6507 40.9801Z" fill="#82939B" stroke="#061922" stroke-width="2.40162" stroke-linecap="round" stroke-linejoin="round"/>
</svg>
