<svg width="64" height="68" viewBox="0 0 64 68" fill="none" xmlns="http://www.w3.org/2000/svg">
<g filter="url(#filter0_d_468_9051)">
<path d="M28.2427 15.8528C29.5123 15.5867 30.8303 15.4475 32.1805 15.4475C34.2183 15.4475 36.1792 15.7647 38.0183 16.3532" stroke="#FFF2BD" stroke-width="0.919364" stroke-linecap="round" stroke-linejoin="round" shape-rendering="crispEdges"/>
</g>
<g filter="url(#filter1_d_468_9051)">
<path d="M15.3279 42.3252C14.0475 39.8212 13.3276 36.993 13.3276 33.9992C13.3276 32.0644 13.6285 30.2001 14.1872 28.4468" stroke="#FFF2BD" stroke-width="0.919364" stroke-linecap="round" stroke-linejoin="round" shape-rendering="crispEdges"/>
</g>
<g filter="url(#filter2_d_468_9051)">
<path d="M37.0459 51.9269C35.4934 52.3339 33.8638 52.5507 32.1805 52.5507C28.9339 52.5507 25.8772 51.7419 23.209 50.3198" stroke="#FFF2BD" stroke-width="0.919364" stroke-linecap="round" stroke-linejoin="round" shape-rendering="crispEdges"/>
</g>
<g filter="url(#filter3_d_468_9051)">
<path d="M48.666 24.9949C50.1738 27.661 51.0316 30.7323 51.0316 33.9993C51.0316 36.7464 50.4245 39.3543 49.3357 41.7015" stroke="#FFF2BD" stroke-width="0.919364" stroke-linecap="round" stroke-linejoin="round" shape-rendering="crispEdges"/>
</g>
<g filter="url(#filter4_d_468_9051)">
<path d="M32.0017 17.3014C32.2321 17.3014 32.419 15.9105 32.419 14.1947C32.419 12.479 32.2321 11.0881 32.0017 11.0881C31.7713 11.0881 31.5845 12.479 31.5845 14.1947C31.5845 15.9105 31.7713 17.3014 32.0017 17.3014Z" fill="#FFF2BD" stroke="#FFF2BD" stroke-width="0.183873" stroke-miterlimit="10"/>
<path d="M32.0017 56.9117C32.2321 56.9117 32.419 55.5208 32.419 53.8051C32.419 52.0894 32.2321 50.6985 32.0017 50.6985C31.7713 50.6985 31.5845 52.0894 31.5845 53.8051C31.5845 55.5208 31.7713 56.9117 32.0017 56.9117Z" fill="#FFF2BD" stroke="#FFF2BD" stroke-width="0.183873" stroke-miterlimit="10"/>
</g>
<g filter="url(#filter5_d_468_9051)">
<path d="M50.942 34.3851C52.5827 34.3851 53.9128 34.2123 53.9128 33.9992C53.9128 33.7861 52.5827 33.6133 50.942 33.6133C49.3013 33.6133 47.9712 33.7861 47.9712 33.9992C47.9712 34.2123 49.3013 34.3851 50.942 34.3851Z" fill="#FFF2BD" stroke="#FFF2BD" stroke-width="0.183873" stroke-miterlimit="10"/>
<path d="M13.0626 34.3851C14.7034 34.3851 16.0334 34.2123 16.0334 33.9992C16.0334 33.7861 14.7034 33.6133 13.0626 33.6133C11.4219 33.6133 10.0918 33.7861 10.0918 33.9992C10.0918 34.2123 11.4219 34.3851 13.0626 34.3851Z" fill="#FFF2BD" stroke="#FFF2BD" stroke-width="0.183873" stroke-miterlimit="10"/>
</g>
<g filter="url(#filter6_d_468_9051)">
<path d="M40.8425 33.4439C36.27 33.4439 32.5636 29.7908 32.5636 25.284L32.0024 12L31.4393 25.286C31.4393 29.7928 27.7328 33.4459 23.1603 33.4459L12.0024 33.999L23.1603 34.5541C27.7328 34.5541 31.4393 38.2072 31.4393 42.714L32.0024 56L32.5656 42.714C32.5656 38.2072 36.272 34.5541 40.8446 34.5541L52.0024 33.999L40.8446 33.4439H40.8425Z" fill="#FFFCED"/>
</g>
<g filter="url(#filter7_d_468_9051)">
<path d="M45.2769 25.3241C43.8425 25.3241 42.6773 24.1607 42.6773 22.7241L42.5005 19L42.3236 22.7241C42.3236 24.1587 41.1604 25.3221 39.726 25.3221L36.0024 25.499L39.726 25.6759C41.1604 25.6759 42.3256 26.8393 42.3256 28.2759L42.5024 32L42.6793 28.2759C42.6793 26.8413 43.8425 25.6759 45.2789 25.6759L49.0024 25.499L45.2789 25.3221L45.2769 25.3241Z" fill="#FFF4C4"/>
</g>
<g filter="url(#filter8_d_468_9051)">
<path d="M21.2905 20.3867C20.3662 20.3867 19.6158 19.6362 19.6158 18.7119L19.5024 17L19.3891 18.7119C19.3891 19.6362 18.6387 20.3867 17.7143 20.3867L16.0024 20.5L17.7143 20.6133C18.6387 20.6133 19.3891 21.3638 19.3891 22.2881L19.5024 24L19.6158 22.2881C19.6158 21.3638 20.3662 20.6133 21.2905 20.6133L23.0024 20.5L21.2905 20.3867Z" fill="#FFF4C4"/>
</g>
<g filter="url(#filter9_d_468_9051)">
<path d="M44.2906 47.3867C43.3662 47.3867 42.6158 46.6362 42.6158 45.7119L42.5024 44L42.3891 45.7119C42.3891 46.6362 41.6387 47.3867 40.7143 47.3867L39.0024 47.5L40.7143 47.6133C41.6387 47.6133 42.3891 48.3638 42.3891 49.2881L42.5024 51L42.6158 49.2881C42.6158 48.3638 43.3662 47.6133 44.2906 47.6133L46.0024 47.5L44.2906 47.3867Z" fill="#FFF4C4"/>
</g>
<defs>
<filter id="filter0_d_468_9051" x="17.7827" y="4.98779" width="30.6953" height="21.8252" filterUnits="userSpaceOnUse" color-interpolation-filters="sRGB">
<feFlood flood-opacity="0" result="BackgroundImageFix"/>
<feColorMatrix in="SourceAlpha" type="matrix" values="0 0 0 0 0 0 0 0 0 0 0 0 0 0 0 0 0 0 127 0" result="hardAlpha"/>
<feOffset/>
<feGaussianBlur stdDeviation="5"/>
<feComposite in2="hardAlpha" operator="out"/>
<feColorMatrix type="matrix" values="0 0 0 0 1 0 0 0 0 0.783333 0 0 0 0 0 0 0 0 1 0"/>
<feBlend mode="normal" in2="BackgroundImageFix" result="effect1_dropShadow_468_9051"/>
<feBlend mode="normal" in="SourceGraphic" in2="effect1_dropShadow_468_9051" result="shape"/>
</filter>
<filter id="filter1_d_468_9051" x="2.86816" y="17.9871" width="22.9194" height="34.7979" filterUnits="userSpaceOnUse" color-interpolation-filters="sRGB">
<feFlood flood-opacity="0" result="BackgroundImageFix"/>
<feColorMatrix in="SourceAlpha" type="matrix" values="0 0 0 0 0 0 0 0 0 0 0 0 0 0 0 0 0 0 127 0" result="hardAlpha"/>
<feOffset/>
<feGaussianBlur stdDeviation="5"/>
<feComposite in2="hardAlpha" operator="out"/>
<feColorMatrix type="matrix" values="0 0 0 0 1 0 0 0 0 0.783333 0 0 0 0 0 0 0 0 1 0"/>
<feBlend mode="normal" in2="BackgroundImageFix" result="effect1_dropShadow_468_9051"/>
<feBlend mode="normal" in="SourceGraphic" in2="effect1_dropShadow_468_9051" result="shape"/>
</filter>
<filter id="filter2_d_468_9051" x="12.749" y="39.8601" width="34.7568" height="23.1501" filterUnits="userSpaceOnUse" color-interpolation-filters="sRGB">
<feFlood flood-opacity="0" result="BackgroundImageFix"/>
<feColorMatrix in="SourceAlpha" type="matrix" values="0 0 0 0 0 0 0 0 0 0 0 0 0 0 0 0 0 0 127 0" result="hardAlpha"/>
<feOffset/>
<feGaussianBlur stdDeviation="5"/>
<feComposite in2="hardAlpha" operator="out"/>
<feColorMatrix type="matrix" values="0 0 0 0 1 0 0 0 0 0.783333 0 0 0 0 0 0 0 0 1 0"/>
<feBlend mode="normal" in2="BackgroundImageFix" result="effect1_dropShadow_468_9051"/>
<feBlend mode="normal" in="SourceGraphic" in2="effect1_dropShadow_468_9051" result="shape"/>
</filter>
<filter id="filter3_d_468_9051" x="38.2061" y="14.5352" width="23.2852" height="37.6262" filterUnits="userSpaceOnUse" color-interpolation-filters="sRGB">
<feFlood flood-opacity="0" result="BackgroundImageFix"/>
<feColorMatrix in="SourceAlpha" type="matrix" values="0 0 0 0 0 0 0 0 0 0 0 0 0 0 0 0 0 0 127 0" result="hardAlpha"/>
<feOffset/>
<feGaussianBlur stdDeviation="5"/>
<feComposite in2="hardAlpha" operator="out"/>
<feColorMatrix type="matrix" values="0 0 0 0 1 0 0 0 0 0.783333 0 0 0 0 0 0 0 0 1 0"/>
<feBlend mode="normal" in2="BackgroundImageFix" result="effect1_dropShadow_468_9051"/>
<feBlend mode="normal" in="SourceGraphic" in2="effect1_dropShadow_468_9051" result="shape"/>
</filter>
<filter id="filter4_d_468_9051" x="21.4927" y="0.996094" width="21.0181" height="66.0076" filterUnits="userSpaceOnUse" color-interpolation-filters="sRGB">
<feFlood flood-opacity="0" result="BackgroundImageFix"/>
<feColorMatrix in="SourceAlpha" type="matrix" values="0 0 0 0 0 0 0 0 0 0 0 0 0 0 0 0 0 0 127 0" result="hardAlpha"/>
<feOffset/>
<feGaussianBlur stdDeviation="5"/>
<feComposite in2="hardAlpha" operator="out"/>
<feColorMatrix type="matrix" values="0 0 0 0 1 0 0 0 0 0.783333 0 0 0 0 0 0 0 0 1 0"/>
<feBlend mode="normal" in2="BackgroundImageFix" result="effect1_dropShadow_468_9051"/>
<feBlend mode="normal" in="SourceGraphic" in2="effect1_dropShadow_468_9051" result="shape"/>
</filter>
<filter id="filter5_d_468_9051" x="0" y="23.5212" width="64.0049" height="20.9558" filterUnits="userSpaceOnUse" color-interpolation-filters="sRGB">
<feFlood flood-opacity="0" result="BackgroundImageFix"/>
<feColorMatrix in="SourceAlpha" type="matrix" values="0 0 0 0 0 0 0 0 0 0 0 0 0 0 0 0 0 0 127 0" result="hardAlpha"/>
<feOffset/>
<feGaussianBlur stdDeviation="5"/>
<feComposite in2="hardAlpha" operator="out"/>
<feColorMatrix type="matrix" values="0 0 0 0 1 0 0 0 0 0.783333 0 0 0 0 0 0 0 0 1 0"/>
<feBlend mode="normal" in2="BackgroundImageFix" result="effect1_dropShadow_468_9051"/>
<feBlend mode="normal" in="SourceGraphic" in2="effect1_dropShadow_468_9051" result="shape"/>
</filter>
<filter id="filter6_d_468_9051" x="0.00244141" y="0" width="64" height="68" filterUnits="userSpaceOnUse" color-interpolation-filters="sRGB">
<feFlood flood-opacity="0" result="BackgroundImageFix"/>
<feColorMatrix in="SourceAlpha" type="matrix" values="0 0 0 0 0 0 0 0 0 0 0 0 0 0 0 0 0 0 127 0" result="hardAlpha"/>
<feOffset/>
<feGaussianBlur stdDeviation="6"/>
<feComposite in2="hardAlpha" operator="out"/>
<feColorMatrix type="matrix" values="0 0 0 0 1 0 0 0 0 0.784314 0 0 0 0 0 0 0 0 1 0"/>
<feBlend mode="normal" in2="BackgroundImageFix" result="effect1_dropShadow_468_9051"/>
<feBlend mode="normal" in="SourceGraphic" in2="effect1_dropShadow_468_9051" result="shape"/>
</filter>
<filter id="filter7_d_468_9051" x="24.0024" y="7" width="37" height="37" filterUnits="userSpaceOnUse" color-interpolation-filters="sRGB">
<feFlood flood-opacity="0" result="BackgroundImageFix"/>
<feColorMatrix in="SourceAlpha" type="matrix" values="0 0 0 0 0 0 0 0 0 0 0 0 0 0 0 0 0 0 127 0" result="hardAlpha"/>
<feOffset/>
<feGaussianBlur stdDeviation="6"/>
<feComposite in2="hardAlpha" operator="out"/>
<feColorMatrix type="matrix" values="0 0 0 0 1 0 0 0 0 0.65 0 0 0 0 0 0 0 0 1 0"/>
<feBlend mode="normal" in2="BackgroundImageFix" result="effect1_dropShadow_468_9051"/>
<feBlend mode="normal" in="SourceGraphic" in2="effect1_dropShadow_468_9051" result="shape"/>
</filter>
<filter id="filter8_d_468_9051" x="4.00244" y="5" width="31" height="31" filterUnits="userSpaceOnUse" color-interpolation-filters="sRGB">
<feFlood flood-opacity="0" result="BackgroundImageFix"/>
<feColorMatrix in="SourceAlpha" type="matrix" values="0 0 0 0 0 0 0 0 0 0 0 0 0 0 0 0 0 0 127 0" result="hardAlpha"/>
<feOffset/>
<feGaussianBlur stdDeviation="6"/>
<feComposite in2="hardAlpha" operator="out"/>
<feColorMatrix type="matrix" values="0 0 0 0 1 0 0 0 0 0.65 0 0 0 0 0 0 0 0 1 0"/>
<feBlend mode="normal" in2="BackgroundImageFix" result="effect1_dropShadow_468_9051"/>
<feBlend mode="normal" in="SourceGraphic" in2="effect1_dropShadow_468_9051" result="shape"/>
</filter>
<filter id="filter9_d_468_9051" x="27.0024" y="32" width="31" height="31" filterUnits="userSpaceOnUse" color-interpolation-filters="sRGB">
<feFlood flood-opacity="0" result="BackgroundImageFix"/>
<feColorMatrix in="SourceAlpha" type="matrix" values="0 0 0 0 0 0 0 0 0 0 0 0 0 0 0 0 0 0 127 0" result="hardAlpha"/>
<feOffset/>
<feGaussianBlur stdDeviation="6"/>
<feComposite in2="hardAlpha" operator="out"/>
<feColorMatrix type="matrix" values="0 0 0 0 1 0 0 0 0 0.65 0 0 0 0 0 0 0 0 1 0"/>
<feBlend mode="normal" in2="BackgroundImageFix" result="effect1_dropShadow_468_9051"/>
<feBlend mode="normal" in="SourceGraphic" in2="effect1_dropShadow_468_9051" result="shape"/>
</filter>
</defs>
</svg>
