<svg width="58" height="58" viewBox="0 0 58 58" fill="none" xmlns="http://www.w3.org/2000/svg">
<g clip-path="url(#clip0_468_9383)">
<g filter="url(#filter0_d_468_9383)">
<path d="M37.1519 36.7525C34.3799 40.4498 30.505 43.3777 26.2872 45.0247C23.4863 46.1185 20.1773 46.7132 17.583 44.4798C15.6166 42.7871 14.9102 39.3227 14.4103 36.9646C13.7452 33.8204 13.8898 30.539 14.8358 27.5362C15.8355 24.3671 17.7111 21.5265 20.1236 19.264C23.2797 16.3111 41.3202 6.99505 41.8778 15.4877C42.3529 22.6827 41.5763 30.8467 37.1478 36.7566L37.1519 36.7525Z" fill="#FCE755"/>
<path d="M37.1519 36.7525C34.3799 40.4498 30.505 43.3777 26.2872 45.0247C23.4863 46.1185 20.1773 46.7132 17.583 44.4798C15.6166 42.7871 14.9102 39.3227 14.4103 36.9646C13.7452 33.8204 13.8898 30.539 14.8358 27.5362C15.8355 24.3671 17.7111 21.5265 20.1236 19.264C23.2797 16.3111 41.3202 6.99505 41.8778 15.4877C42.3529 22.6827 41.5763 30.8467 37.1478 36.7566L37.1519 36.7525Z" stroke="#BF7300" stroke-width="2.4" stroke-miterlimit="10"/>
</g>
<path d="M36.0215 17.5206C35.6598 18.1857 35.372 18.8897 35.1503 19.6092C34.983 20.1538 35.3486 20.7566 35.8854 20.9044C36.4221 21.0522 37.0133 20.7139 37.1806 20.1693C37.3478 19.6248 37.554 19.1036 37.8379 18.5824C38.1218 18.0612 37.9623 17.435 37.4606 17.1433C36.9589 16.8516 36.2938 17.0189 36.0215 17.5206Z" fill="#BF7300"/>
<path d="M31.3161 18.8273C31.1138 19.3057 31.0243 19.8152 31.001 20.3364C30.9738 20.8848 31.5027 21.4138 32.0512 21.3866C32.6462 21.3594 33.0741 20.9237 33.1013 20.3364C33.1052 20.247 33.1052 20.1536 33.1208 20.0642C33.078 20.317 33.1441 19.9942 33.1558 19.9436C33.2024 19.753 33.2647 19.5663 33.3425 19.3874C33.4397 19.154 33.358 18.7845 33.2374 18.5784C33.1091 18.3606 32.8602 18.1506 32.6074 18.0961C31.9928 17.9561 31.5416 18.2867 31.3122 18.8312L31.3161 18.8273Z" fill="#BF7300"/>
<path d="M24.4078 40.3845L24.4973 41.1663L25.8275 40.1511C25.9831 40.225 26.0103 40.2328 25.9092 40.1822C26.0297 40.2834 26.057 40.3067 25.9986 40.2523C25.9403 40.1978 25.9636 40.2289 26.0608 40.3495C26.0181 40.2756 26.0181 40.2834 26.057 40.3689C26.092 40.4584 26.0958 40.4623 26.0686 40.3806C26.0997 40.4856 26.0997 40.5945 26.0686 40.6995C26.0492 40.7657 25.8391 41.0146 25.9597 40.9096C25.6369 41.2091 25.1429 41.1079 24.9096 40.7423C24.9601 40.8357 24.9446 40.7968 24.859 40.6218L24.8357 40.4351C24.8357 40.544 24.8357 40.4973 24.8551 40.2873C25.1001 39.9528 25.1546 39.8439 25.0224 39.9644C24.6023 40.3223 24.6295 41.0885 25.0224 41.4502C25.4696 41.8625 26.0608 41.8314 26.5081 41.4502C27.006 41.0302 27.0488 40.2367 26.7376 39.7C26.3487 39.031 25.5163 38.8209 24.8357 39.1593C24.1978 39.4783 23.9061 40.1939 24.0267 40.8785C24.1433 41.5202 24.6762 41.9675 25.2596 42.1737C25.843 42.3798 26.6676 41.8197 26.5898 41.1585L26.5004 40.3767C26.4692 40.0889 26.4031 39.8439 26.1931 39.6338C26.0103 39.451 25.7108 39.3149 25.4502 39.3266C24.9329 39.3499 24.33 39.7933 24.4 40.3767L24.4078 40.3845Z" fill="#BF7300"/>
<path d="M18.0449 30.4514C18.2924 27.3601 20.3056 24.8079 22.8909 23.2182C24.8106 22.0411 26.5432 25.0829 24.6208 26.2628C23.1934 27.1401 21.689 28.683 21.546 30.4486C21.3645 32.6819 17.8662 32.6984 18.0477 30.4486L18.0449 30.4514Z" fill="white"/>
<path d="M20.9987 34.1147C22.5911 35.7071 20.1187 38.1851 18.5235 36.5899C16.9284 34.9948 19.4036 32.5195 20.9987 34.1147Z" fill="white"/>
<path d="M23.8862 12.2205C21.6214 12.2205 19.7795 10.3858 19.7795 8.11383L19.5 4L19.2205 8.11383C19.2205 10.3786 17.3858 12.2205 15.1138 12.2205L11 12.5L15.1138 12.7795C17.3786 12.7795 19.2205 14.6143 19.2205 16.8862L19.5 21L19.7795 16.8862C19.7795 14.6214 21.6143 12.7795 23.8862 12.7795L28 12.5L23.8862 12.2205Z" fill="#FFF3C3"/>
<path d="M48.3707 37.2508C46.3692 37.2508 44.7492 35.6308 44.7492 33.6293L44.5 30L44.2508 33.6293C44.2508 35.6308 42.6308 37.2508 40.6293 37.2508L37 37.5L40.6293 37.7492C42.6308 37.7492 44.2508 39.3692 44.2508 41.3707L44.5 45L44.7492 41.3707C44.7492 39.3692 46.3692 37.7492 48.3707 37.7492L52 37.5L48.3707 37.2508Z" fill="#FFF3C3"/>
<path d="M14.5805 20.8339C13.2461 20.8339 12.1661 19.7539 12.1661 18.4195L12 16L11.8339 18.4195C11.8339 19.7539 10.7539 20.8339 9.41952 20.8339L7 21L9.41952 21.1661C10.7539 21.1661 11.8339 22.2461 11.8339 23.5805L12 26L12.1661 23.5805C12.1661 22.2461 13.2461 21.1661 14.5805 21.1661L17 21L14.5805 20.8339Z" fill="#FFF3C3"/>
</g>
<defs>
<filter id="filter0_d_468_9383" x="-2.2002" y="-4.19971" width="60.4004" height="66.3997" filterUnits="userSpaceOnUse" color-interpolation-filters="sRGB">
<feFlood flood-opacity="0" result="BackgroundImageFix"/>
<feColorMatrix in="SourceAlpha" type="matrix" values="0 0 0 0 0 0 0 0 0 0 0 0 0 0 0 0 0 0 127 0" result="hardAlpha"/>
<feOffset/>
<feGaussianBlur stdDeviation="7.5"/>
<feComposite in2="hardAlpha" operator="out"/>
<feColorMatrix type="matrix" values="0 0 0 0 1 0 0 0 0 0.783333 0 0 0 0 0 0 0 0 1 0"/>
<feBlend mode="normal" in2="BackgroundImageFix" result="effect1_dropShadow_468_9383"/>
<feBlend mode="normal" in="SourceGraphic" in2="effect1_dropShadow_468_9383" result="shape"/>
</filter>
<clipPath id="clip0_468_9383">
<rect width="58" height="58" fill="white"/>
</clipPath>
</defs>
</svg>
