<svg width="100" height="100" viewBox="0 0 100 100" fill="none" xmlns="http://www.w3.org/2000/svg">
<g clip-path="url(#clip0_467_8525)">
<g clip-path="url(#clip1_467_8525)">
<path d="M13.9861 23.7995C12.5663 23.7995 11.4126 22.6448 11.4126 21.2236C11.4126 19.8024 12.5663 18.6477 13.9861 18.6477L48.9065 19.4782C49.8605 19.5004 50.6059 20.2687 50.6059 21.2192C50.6059 22.1696 49.8605 22.9379 48.9065 22.9601L13.9861 23.7906V23.7995Z" fill="#D4574B"/>
<path d="M13.9861 19.758C13.9861 19.758 14.0082 19.758 14.0216 19.758L48.8798 20.5885C49.2214 20.5973 49.4966 20.8771 49.4966 21.2191C49.4966 21.5611 49.2214 21.8453 48.8798 21.8498L14.0216 22.6803C14.0216 22.6803 13.9994 22.6803 13.9861 22.6803C13.1785 22.6803 12.5218 22.0274 12.5218 21.2147C12.5218 20.4019 13.1785 19.7491 13.9861 19.7491M13.9861 17.5374C11.9583 17.5374 10.3032 19.1895 10.3032 21.2236C10.3032 23.2576 11.9538 24.9098 13.9861 24.9098H14.0748L48.933 24.0792C50.4949 24.0437 51.7151 22.7913 51.7151 21.228C51.7151 19.6647 50.4949 18.4123 48.933 18.3767L14.0748 17.5418H13.9861V17.5374Z" fill="#91000F"/>
<path d="M52.4074 22.9689C51.4534 22.9467 50.708 22.1828 50.708 21.228C50.708 20.2731 51.4534 19.5092 52.4074 19.487L87.3278 18.6565C88.7477 18.6565 89.9013 19.8112 89.9013 21.2324C89.9013 21.9208 89.6351 22.5692 89.147 23.0533C88.6634 23.5374 88.0156 23.8038 87.3322 23.8038L52.4119 22.9733L52.4074 22.9689Z" fill="#D4574B"/>
<path d="M87.3233 19.758C88.1309 19.758 88.7876 20.4109 88.7876 21.2236C88.7876 22.0364 88.1309 22.6892 87.3233 22.6892C87.31 22.6892 87.3011 22.6892 87.2878 22.6892L52.4296 21.8587C52.0879 21.8499 51.8128 21.5701 51.8128 21.2281C51.8128 20.8861 52.0879 20.6019 52.4296 20.5974L87.2878 19.7669C87.2878 19.7669 87.31 19.7669 87.3233 19.7669M87.3233 17.5374H87.2346L52.3763 18.368C50.8145 18.4035 49.5942 19.6603 49.5942 21.2192C49.5942 22.7781 50.8145 24.0349 52.3763 24.0705L87.2346 24.901H87.3233C89.3511 24.901 91.0061 23.2488 91.0061 21.2148C91.0061 19.1807 89.3555 17.5286 87.3233 17.5286V17.5374Z" fill="#91000F"/>
<path d="M50.6325 17H50.6281C49.7507 17 49.0396 17.7118 49.0396 18.59V26.2999C49.0396 27.178 49.7507 27.8898 50.6281 27.8898H50.6325C51.5098 27.8898 52.221 27.178 52.221 26.2999V18.59C52.221 17.7118 51.5098 17 50.6325 17Z" fill="#061922"/>
<path d="M54.9455 26.0513H46.3153C44.8998 26.0513 43.6397 27.1971 43.1826 28.9025L42.2153 32.491H59.0543L58.087 28.9025C57.6255 27.1971 56.3654 26.0513 54.9544 26.0513H54.9455Z" fill="#585858" stroke="#061922" stroke-width="2.38632" stroke-miterlimit="10"/>
<path d="M58.5793 82.0101C58.5793 76.8717 54.4173 72.7058 49.2835 72.7058H37.5517C32.4179 72.7058 28.2559 76.8717 28.2559 82.0101" stroke="#061922" stroke-width="2.86358" stroke-linecap="round" stroke-linejoin="round"/>
<path d="M17.4736 76.8762C17.4736 80.0739 20.0649 82.6675 23.2597 82.6675H63.58C66.7748 82.6675 69.3661 80.0739 69.3661 76.8762" stroke="#061922" stroke-width="2.86358" stroke-linecap="round" stroke-linejoin="round"/>
<path d="M95.4876 31.6159C94.2852 31.7136 93.2602 32.5352 92.7987 33.6455L91.1836 37.5316C90.8464 38.3443 89.9989 38.8195 89.1292 38.6863L85.4375 38.1223C75.4983 36.6034 65.6389 34.6048 55.8639 32.2377C54.1645 31.8246 52.3852 31.607 50.5571 31.607H36.2783C23.841 31.607 13.7554 41.7019 13.7554 54.1506C13.7554 66.6037 23.841 76.6941 36.2783 76.6941H50.5571C62.9988 76.6941 73.08 66.5993 73.08 54.1506C73.08 51.8989 72.7472 49.7227 72.1305 47.6708L95.1726 46.0409C97.3024 45.7523 98.8909 43.9358 98.8909 41.7818V34.7514C98.8909 32.9261 97.3424 31.4649 95.4876 31.6115V31.6159Z" fill="#585858" stroke="#061922" stroke-width="2.38632" stroke-miterlimit="10"/>
<path d="M56.689 67.3766H30.146C24.777 67.3766 19.8651 65.3691 16.0669 62.0471C19.164 70.6053 27.142 76.6986 36.5044 76.6986H50.3306C59.6929 76.6986 67.6709 70.6053 70.7681 62.0471C66.9699 65.3691 62.0579 67.3766 56.689 67.3766Z" fill="#424444"/>
<mask id="mask0_467_8525" style="mask-type:luminance" maskUnits="userSpaceOnUse" x="13" y="31" width="61" height="46">
<path d="M50.5571 31.6069H36.2783C23.8392 31.6069 13.7554 41.7 13.7554 54.1505C13.7554 66.6009 23.8392 76.694 36.2783 76.694H50.5571C62.9962 76.694 73.08 66.6009 73.08 54.1505C73.08 41.7 62.9962 31.6069 50.5571 31.6069Z" fill="white"/>
</mask>
<g mask="url(#mask0_467_8525)">
<path d="M1.10938 26.2021H37.8312V44.9751C37.8312 51.3394 32.6708 56.5045 26.3124 56.5045H1.10938V26.2021Z" fill="#85E4F9" stroke="#061922" stroke-width="2.38632" stroke-miterlimit="10"/>
</g>
<path d="M69.5569 42.0395C70.1515 42.9677 70.6751 43.9448 71.1277 44.9618C72.3834 47.7687 73.08 50.882 73.08 54.1551C73.08 66.6083 62.9944 76.6987 50.5571 76.6987H36.2783C23.8366 76.6987 13.7554 66.6038 13.7554 54.1551C13.7554 41.702 23.841 31.6116 36.2783 31.6116H50.5571" stroke="#061922" stroke-width="2.38632" stroke-linecap="round" stroke-linejoin="round"/>
<path d="M47.0117 41.0535H57.6476" stroke="#424444" stroke-width="2.38632" stroke-linecap="round" stroke-linejoin="round"/>
<path d="M47.0117 46.7161H57.6476" stroke="#424444" stroke-width="2.38632" stroke-linecap="round" stroke-linejoin="round"/>
<g opacity="0.3">
<mask id="mask1_467_8525" style="mask-type:luminance" maskUnits="userSpaceOnUse" x="-1" y="24" width="38" height="32">
<path d="M-1 24H36.8735V44.3037C36.8735 50.4255 31.9096 55.3986 25.7887 55.3986H-1V24Z" fill="white"/>
</mask>
<g mask="url(#mask1_467_8525)">
<path fill-rule="evenodd" clip-rule="evenodd" d="M41.4358 49.4045C42.489 49.9104 42.7724 50.8133 42.2859 52.1227C41.7522 53.4795 40.8218 54.4391 39.4994 55.0064C38.9184 55.2569 38.1675 55.394 37.256 55.4082C36.7978 55.4082 36.4058 55.3846 36.0752 55.3373L25.6138 61.1282C24.589 61.5537 23.8522 61.4686 23.394 60.8682C22.8415 60.1733 22.7187 58.7882 23.0162 56.7082C23.2996 54.7558 23.7719 53.4227 24.4331 52.7136L25.3305 52.2173L24.1261 52.1464C23.1815 52.0518 22.3455 51.9336 21.6229 51.7918C19.7951 51.4609 18.9686 50.6667 19.1434 49.4045C18.9403 48.7427 18.945 48.1045 19.167 47.49C19.6251 46.2609 20.905 45.774 23.0162 46.0245C23.191 45.2823 23.5688 44.5354 24.1497 43.7791C25.3446 42.2522 27.0166 41.4391 29.1561 41.3445C31.9757 41.2169 34.0349 41.9969 35.3432 43.6845C36.6986 45.4336 36.9726 47.8114 36.1697 50.8227C36.5333 51.1678 36.9962 51.3096 37.5629 51.2482C38.1911 51.1867 38.6728 50.8464 39.0035 50.2318C39.5844 49.1776 40.3967 48.8987 41.4358 49.4045Z" fill="#009A3E"/>
<path d="M36.0752 55.3373C36.4058 55.3846 36.7978 55.4082 37.256 55.4082C38.1675 55.394 38.9184 55.2569 39.4994 55.0064C40.8218 54.4391 41.7522 53.4795 42.2859 52.1227C42.7724 50.8133 42.489 49.9104 41.4358 49.4045C40.3967 48.8987 39.5844 49.1776 39.0035 50.2318C38.6728 50.8464 38.1911 51.1867 37.5629 51.2482C36.9962 51.3096 36.5333 51.1678 36.1697 50.8227C36.9726 47.8114 36.6986 45.4336 35.3432 43.6845C34.0349 41.9969 31.9757 41.2169 29.1561 41.3445C27.0166 41.4391 25.3446 42.2522 24.1497 43.7791C23.5688 44.5354 23.191 45.2823 23.0162 46.0245C20.905 45.774 19.6251 46.2609 19.167 47.49C18.945 48.1045 18.9403 48.7427 19.1434 49.4045C18.9686 50.6667 19.7951 51.4609 21.6229 51.7918C22.3455 51.9336 23.1815 52.0518 24.1261 52.1464L25.3305 52.2173L24.4331 52.7136C23.7719 53.4227 23.2996 54.7558 23.0162 56.7082C22.7187 58.7882 22.8415 60.1733 23.394 60.8682C23.8522 61.4686 24.589 61.5537 25.6138 61.1282" stroke="#061922" stroke-width="1.43179" stroke-linecap="round" stroke-linejoin="round"/>
<path fill-rule="evenodd" clip-rule="evenodd" d="M25.6135 49.5934L23.3701 49.5225C23.5449 47.9767 23.9605 47.2297 24.6217 47.277C25.2215 47.3101 25.5521 48.0807 25.6135 49.5934Z" fill="white"/>
<path d="M25.6135 49.5934C25.5521 48.0807 25.2215 47.3101 24.6217 47.277C23.9605 47.2297 23.5449 47.9767 23.3701 49.5225" stroke="#061922" stroke-width="1.43179" stroke-linecap="round" stroke-linejoin="round"/>
<path fill-rule="evenodd" clip-rule="evenodd" d="M26.1807 45.7643C26.2893 45.4192 26.5349 45.0694 26.9127 44.7243C27.6542 44.0294 28.6697 43.6938 29.959 43.708C31.0123 43.7221 31.9049 44.0483 32.6275 44.677C32.9912 44.9938 33.2415 45.3058 33.3832 45.6225L32.6511 46.5207C31.9427 47.1494 31.0831 47.4992 30.0771 47.5607C28.0793 47.7025 26.7805 47.1021 26.1807 45.7643Z" fill="#FED130"/>
<path fill-rule="evenodd" clip-rule="evenodd" d="M26.1807 45.7643C26.2893 45.4192 26.5349 45.0694 26.9127 44.7243C27.6542 44.0294 28.6697 43.6938 29.959 43.708C31.0123 43.7221 31.9049 44.0483 32.6275 44.677C32.9912 44.9938 33.2415 45.3058 33.3832 45.6225L32.6511 46.5207C31.9427 47.1494 31.0831 47.4992 30.0771 47.5607C28.0793 47.7025 26.7805 47.1021 26.1807 45.7643Z" stroke="#061922" stroke-width="1.43179" stroke-linecap="round" stroke-linejoin="round"/>
<path d="M29.6992 43.708V47.5844" stroke="#061922" stroke-width="1.43179" stroke-linecap="round" stroke-linejoin="round"/>
<path d="M26.8892 49.6409L19.1436 49.4045" stroke="#061922" stroke-width="1.43179" stroke-linecap="round" stroke-linejoin="round"/>
<path fill-rule="evenodd" clip-rule="evenodd" d="M35.9101 64.6025C35.9101 65.2785 35.7684 65.8222 35.485 66.2335C35.1875 66.6589 34.7671 66.8716 34.2334 66.8716C33.8414 66.8716 33.5014 66.744 33.218 66.4935C32.8874 66.1956 32.689 65.7749 32.6276 65.2407C32.5001 63.9975 32.3112 63.2222 32.0609 62.9244C31.8719 62.7022 31.461 62.6171 30.8329 62.6644C30.1858 62.7116 29.7561 62.8629 29.5341 63.1134C29.2176 63.4774 29.0287 64.248 28.9673 65.4298C28.9059 66.4367 28.3155 66.9425 27.1962 66.9425C26.1099 66.9567 25.5054 66.0538 25.3779 64.2244C25.1748 61.3738 25.274 58.424 25.6849 55.3843L36.0754 55.2898L35.9101 64.6025Z" fill="#009A3E"/>
<path d="M36.0754 55.2898L35.9101 64.6025C35.9101 65.2785 35.7684 65.8222 35.485 66.2335C35.1875 66.6589 34.7671 66.8716 34.2334 66.8716C33.8414 66.8716 33.5014 66.744 33.218 66.4935C32.8874 66.1956 32.689 65.7749 32.6276 65.2407C32.5001 63.9975 32.3112 63.2222 32.0609 62.9244C31.8719 62.7022 31.461 62.6171 30.8329 62.6644C30.1858 62.7116 29.7561 62.8629 29.5341 63.1134C29.2176 63.4774 29.0287 64.248 28.9673 65.4298C28.9059 66.4367 28.3155 66.9425 27.1962 66.9425C26.1099 66.9567 25.5054 66.0538 25.3779 64.2244C25.1748 61.3738 25.274 58.424 25.6849 55.3843" stroke="#061922" stroke-width="1.43179" stroke-linecap="round" stroke-linejoin="round"/>
</g>
</g>
<path d="M28.5976 37.3096C28.5976 37.3096 26.2193 37.8248 23.5171 41.1734Z" fill="#061922"/>
<path d="M28.5976 37.3096C28.5976 37.3096 26.2193 37.8248 23.5171 41.1734" stroke="white" stroke-width="3.10221" stroke-linecap="round" stroke-linejoin="round"/>
</g>
</g>
<defs>
<clipPath id="clip0_467_8525">
<rect width="100" height="100" fill="white"/>
</clipPath>
<clipPath id="clip1_467_8525">
<rect width="100" height="100" fill="white"/>
</clipPath>
</defs>
</svg>
