<svg width="28" height="28" viewBox="0 0 28 28" fill="none" xmlns="http://www.w3.org/2000/svg">
<path d="M26.5416 14.0248C26.4168 10.8948 25.2022 8.19417 23.1107 6.2494C23.0336 5.06786 22.6557 4.1872 22.0429 3.78724C21.287 3.29187 20.3843 3.16712 19.056 3.83861C17.4855 3.35792 15.8637 3.10474 13.9996 3.10474C12.1356 3.10474 10.5027 3.37994 8.9432 3.83861C7.61489 3.17079 6.71222 3.29554 5.95633 3.78724C5.34354 4.1872 4.96559 5.06786 4.88854 6.2494C2.80066 8.1905 1.58242 10.8948 1.46133 14.0248C1.1898 20.9673 5.13439 24.8091 13.9996 24.8348C22.8685 24.8091 26.8131 20.971 26.5379 14.0248H26.5416Z" fill="#B6CCD3" stroke="black" stroke-width="1.47467" stroke-linecap="round" stroke-linejoin="round"/>
<path d="M11.2515 13.7241C11.2515 14.2672 10.8111 14.7075 10.2681 14.7075C9.72499 14.7075 9.28467 14.2672 9.28467 13.7241C9.28467 13.181 9.72499 12.7407 10.2681 12.7407C10.8111 12.7407 11.2515 13.181 11.2515 13.7241Z" fill="black"/>
<path d="M17.6187 10.825C18.092 10.946 18.4222 11.0708 18.9029 11.2616" stroke="black" stroke-width="1.47467" stroke-linecap="round" stroke-linejoin="round"/>
<path d="M10.3238 10.825C9.85048 10.946 9.52024 11.0708 9.03955 11.2616" stroke="black" stroke-width="1.47467" stroke-linecap="round" stroke-linejoin="round"/>
<path d="M18.855 13.7241C18.855 14.2672 18.4146 14.7075 17.8716 14.7075C17.3285 14.7075 16.8882 14.2672 16.8882 13.7241C16.8882 13.181 17.3285 12.7407 17.8716 12.7407C18.4146 12.7407 18.855 13.181 18.855 13.7241Z" fill="black"/>
<path d="M13.9963 15.522C11.8754 15.522 10.6572 16.7329 10.892 17.9291C11.1489 19.2317 12.9029 19.6831 13.9963 18.4538C15.0898 19.6831 16.8438 19.2317 17.1006 17.9291C17.3355 16.7365 16.1172 15.522 13.9963 15.522Z" stroke="black" stroke-width="1.47467" stroke-linecap="round" stroke-linejoin="round"/>
<path d="M9.74707 16.2817L11.013 16.7991" stroke="black" stroke-width="1.02743" stroke-linecap="round" stroke-linejoin="round"/>
<path d="M9.79492 18.7805L10.8921 18.3181" stroke="black" stroke-width="1.02743" stroke-linecap="round" stroke-linejoin="round"/>
<path d="M18.3956 16.2817L17.126 16.7991" stroke="black" stroke-width="1.02743" stroke-linecap="round" stroke-linejoin="round"/>
<path d="M18.3449 18.7805L17.2515 18.3181" stroke="black" stroke-width="1.02743" stroke-linecap="round" stroke-linejoin="round"/>
</svg>
