<svg width="28" height="28" viewBox="0 0 28 28" fill="none" xmlns="http://www.w3.org/2000/svg">
<path d="M26.5345 14.0563C26.4126 10.9794 25.1968 8.31719 23.1052 6.40415C23.0276 5.24033 22.6507 4.37473 22.0373 3.98194C21.2798 3.49459 20.3781 3.37094 19.0515 4.03286C17.481 3.56006 15.8587 3.31274 14 3.31274C12.1412 3.31274 10.5042 3.58552 8.94846 4.03286C7.62184 3.37457 6.72018 3.49823 5.96263 3.98194C5.34921 4.37473 4.97229 5.24033 4.89469 6.40415C2.80313 8.31719 1.58737 10.9794 1.46543 14.0563C1.19197 20.8865 5.13488 24.6653 14 24.6908C22.865 24.6653 26.808 20.8865 26.5345 14.0563Z" fill="#FFD677"/>
<path d="M26.5345 14.0563C26.4126 10.9794 25.1968 8.31719 23.1052 6.40415C23.0276 5.24033 22.6507 4.37473 22.0373 3.98194C21.2798 3.49459 20.3781 3.37094 19.0515 4.03286C17.481 3.56006 15.8587 3.31274 14 3.31274C12.1412 3.31274 10.5042 3.58552 8.94846 4.03286C7.62184 3.37457 6.72018 3.49823 5.96263 3.98194C5.34921 4.37473 4.97229 5.24033 4.89469 6.40415C2.80313 8.31719 1.58737 10.9794 1.46543 14.0563C1.19197 20.8865 5.13488 24.6653 14 24.6908C22.865 24.6653 26.808 20.8865 26.5345 14.0563Z" stroke="#061922" stroke-width="1.47297" stroke-linecap="round" stroke-linejoin="round"/>
<path d="M11.254 11.9069C11.254 12.4415 10.8143 12.8743 10.271 12.8743C9.72783 12.8743 9.28809 12.4415 9.28809 11.9069C9.28809 11.3723 9.72783 10.9395 10.271 10.9395C10.8143 10.9395 11.254 11.3723 11.254 11.9069Z" fill="#061922"/>
<path d="M18.8517 11.9069C18.8517 12.4415 18.4119 12.8743 17.8687 12.8743C17.3255 12.8743 16.8857 12.4415 16.8857 11.9069C16.8857 11.3723 17.3255 10.9395 17.8687 10.9395C18.4119 10.9395 18.8517 11.3723 18.8517 11.9069Z" fill="#061922"/>
<path d="M13.9962 13.8091C11.8751 13.8091 10.6593 15.002 10.8921 16.1767C11.1508 17.4606 12.9024 17.9043 13.9962 16.6932C15.09 17.9043 16.8416 17.4606 17.1003 16.1767C17.3368 15.002 16.1173 13.8091 13.9962 13.8091Z" fill="white"/>
<path d="M13.9962 13.8091C11.8751 13.8091 10.6593 15.002 10.8921 16.1767C11.1508 17.4606 12.9024 17.9043 13.9962 16.6932C15.09 17.9043 16.8416 17.4606 17.1003 16.1767C17.3368 15.002 16.1173 13.8091 13.9962 13.8091Z" stroke="#061922" stroke-width="1.47297" stroke-linecap="round" stroke-linejoin="round"/>
<path d="M9.74658 14.5547L11.0104 15.0639" stroke="#061922" stroke-width="1.47297" stroke-linecap="round" stroke-linejoin="round"/>
<path d="M9.79785 17.013L10.8917 16.5583" stroke="#061922" stroke-width="1.47297" stroke-linecap="round" stroke-linejoin="round"/>
<path d="M18.3898 14.5547L17.126 15.0639" stroke="#061922" stroke-width="1.47297" stroke-linecap="round" stroke-linejoin="round"/>
<path d="M18.3419 17.013L17.248 16.5583" stroke="#061922" stroke-width="1.47297" stroke-linecap="round" stroke-linejoin="round"/>
</svg>
